<svg width="244" height="244" viewBox="0 0 244 244" fill="none" xmlns="http://www.w3.org/2000/svg">
<rect width="244" height="244" rx="122" fill="#3B755F"/>
<path d="M75.3889 102.236C61.8753 115.678 90.6754 184.879 128.135 182.349C155.844 180.478 168.9 138.918 171.784 116.504C174.649 94.2366 148.076 102.869 150.535 119.814C154.141 144.679 153.793 149.138 147.568 155.445C141.343 161.753 137.828 159.687 142.66 134.608C147.493 109.528 148.252 91.5927 147.568 79.6541C146.884 67.7154 120.974 55.571 128.194 94.9539C136.233 138.811 132.571 163.086 124.222 158.094C115.872 153.102 119.976 133.178 119.003 123.147C117.822 110.952 115.769 110.824 113.484 97.718C111.198 84.6118 121.384 69.5624 118.989 63.3225C116.594 57.0826 90.4465 67.4466 100.189 97.4274C113.411 138.115 107.268 148.756 103.305 149.138C99.3427 149.519 95.9009 144.151 93.8956 137.378C91.8903 130.605 97.3429 115.341 94.9263 104.624C92.611 94.3566 87.7171 89.9731 75.3889 102.236Z" fill="#F2EBDB"/>
</svg>
