<svg width="498" height="164" viewBox="0 0 498 164" fill="none" xmlns="http://www.w3.org/2000/svg">
<rect width="498" height="164" fill="#F9F9F9"/>
<path d="M100.398 139.2H101.84L106.67 146.536V139.2H108.014V149H106.88L101.728 141.258V149H100.398V139.2ZM112.794 149.14C112.094 149.14 111.488 148.986 110.974 148.678C110.461 148.361 110.069 147.931 109.798 147.39C109.528 146.849 109.392 146.242 109.392 145.57C109.392 144.898 109.528 144.291 109.798 143.75C110.069 143.209 110.461 142.784 110.974 142.476C111.488 142.159 112.094 142 112.794 142C113.485 142 114.087 142.159 114.6 142.476C115.123 142.784 115.52 143.209 115.79 143.75C116.061 144.291 116.196 144.898 116.196 145.57C116.196 146.242 116.061 146.849 115.79 147.39C115.52 147.931 115.123 148.361 114.6 148.678C114.087 148.986 113.485 149.14 112.794 149.14ZM112.794 148.02C113.466 148.02 113.984 147.805 114.348 147.376C114.722 146.947 114.908 146.345 114.908 145.57C114.908 144.795 114.722 144.193 114.348 143.764C113.984 143.335 113.466 143.12 112.794 143.12C112.122 143.12 111.6 143.335 111.226 143.764C110.862 144.193 110.68 144.795 110.68 145.57C110.68 146.345 110.862 146.947 111.226 147.376C111.6 147.805 112.122 148.02 112.794 148.02ZM119.766 149.14C119.159 149.14 118.707 148.981 118.408 148.664C118.119 148.347 117.974 147.959 117.974 147.502V143.12H116.798L116.91 142.14H117.974V140.446L119.234 140.32V142.14H121.04V143.12H119.234V146.732C119.234 147.208 119.262 147.535 119.318 147.712C119.374 147.889 119.491 148.006 119.668 148.062C119.855 148.109 120.191 148.132 120.676 148.132H120.998L120.9 149.14H119.766ZM127.207 149.14C126.666 149.14 126.19 149.079 125.779 148.958C125.378 148.827 125.07 148.687 124.855 148.538L125.009 147.32C125.196 147.488 125.481 147.647 125.863 147.796C126.255 147.945 126.685 148.02 127.151 148.02C127.59 148.02 127.926 147.945 128.159 147.796C128.402 147.647 128.523 147.437 128.523 147.166C128.523 146.849 128.393 146.611 128.131 146.452C127.87 146.284 127.543 146.144 127.151 146.032C126.722 145.92 126.358 145.803 126.059 145.682C125.77 145.551 125.518 145.355 125.303 145.094C125.098 144.833 124.995 144.487 124.995 144.058C124.995 143.47 125.205 142.98 125.625 142.588C126.045 142.196 126.694 142 127.571 142C127.973 142 128.313 142.042 128.593 142.126C128.873 142.201 129.153 142.308 129.433 142.448L129.279 143.596C129.055 143.409 128.808 143.265 128.537 143.162C128.267 143.05 127.954 142.994 127.599 142.994C127.189 142.994 126.862 143.073 126.619 143.232C126.386 143.381 126.269 143.61 126.269 143.918C126.269 144.123 126.325 144.291 126.437 144.422C126.549 144.543 126.708 144.646 126.913 144.73C127.119 144.814 127.436 144.921 127.865 145.052C128.397 145.211 128.855 145.435 129.237 145.724C129.629 146.013 129.825 146.471 129.825 147.096C129.825 147.656 129.625 148.137 129.223 148.538C128.831 148.939 128.159 149.14 127.207 149.14ZM134.348 149.14C133.564 149.14 132.892 148.981 132.332 148.664C131.781 148.337 131.361 147.899 131.072 147.348C130.783 146.797 130.638 146.186 130.638 145.514C130.638 144.87 130.769 144.282 131.03 143.75C131.301 143.209 131.688 142.784 132.192 142.476C132.705 142.159 133.307 142 133.998 142C134.875 142 135.585 142.257 136.126 142.77C136.677 143.283 136.952 143.993 136.952 144.898C136.952 145.131 136.933 145.355 136.896 145.57H131.926C132.01 146.457 132.281 147.087 132.738 147.46C133.195 147.833 133.783 148.02 134.502 148.02C135.221 148.02 135.879 147.885 136.476 147.614L136.644 148.608C135.851 148.963 135.085 149.14 134.348 149.14ZM135.65 144.702C135.65 144.207 135.51 143.82 135.23 143.54C134.95 143.26 134.53 143.12 133.97 143.12C133.429 143.12 133.004 143.255 132.696 143.526C132.388 143.787 132.169 144.179 132.038 144.702H135.65ZM139.986 149.14C139.37 149.14 138.917 148.981 138.628 148.664C138.348 148.347 138.208 147.955 138.208 147.488V138.5H139.468V146.76C139.468 147.171 139.491 147.469 139.538 147.656C139.594 147.843 139.697 147.969 139.846 148.034C139.995 148.099 140.238 148.132 140.574 148.132L140.392 149.14H139.986ZM144.752 149.14C143.968 149.14 143.296 148.981 142.736 148.664C142.186 148.337 141.766 147.899 141.476 147.348C141.187 146.797 141.042 146.186 141.042 145.514C141.042 144.87 141.173 144.282 141.434 143.75C141.705 143.209 142.092 142.784 142.596 142.476C143.11 142.159 143.712 142 144.402 142C145.28 142 145.989 142.257 146.53 142.77C147.081 143.283 147.356 143.993 147.356 144.898C147.356 145.131 147.338 145.355 147.3 145.57H142.33C142.414 146.457 142.685 147.087 143.142 147.46C143.6 147.833 144.188 148.02 144.906 148.02C145.625 148.02 146.283 147.885 146.88 147.614L147.048 148.608C146.255 148.963 145.49 149.14 144.752 149.14ZM146.054 144.702C146.054 144.207 145.914 143.82 145.634 143.54C145.354 143.26 144.934 143.12 144.374 143.12C143.833 143.12 143.408 143.255 143.1 143.526C142.792 143.787 142.573 144.179 142.442 144.702H146.054ZM151.776 149.14C151.03 149.14 150.386 148.986 149.844 148.678C149.312 148.37 148.911 147.95 148.64 147.418C148.37 146.877 148.234 146.275 148.234 145.612C148.234 144.529 148.538 143.657 149.144 142.994C149.76 142.331 150.67 142 151.874 142C152.584 142 153.209 142.135 153.75 142.406L153.554 143.512C152.985 143.251 152.416 143.12 151.846 143.12C151.1 143.12 150.526 143.335 150.124 143.764C149.723 144.184 149.522 144.781 149.522 145.556C149.522 146.331 149.714 146.937 150.096 147.376C150.488 147.815 151.062 148.034 151.818 148.034C152.425 148.034 153.008 147.894 153.568 147.614L153.736 148.622C153.531 148.762 153.246 148.883 152.882 148.986C152.528 149.089 152.159 149.14 151.776 149.14ZM157.35 149.14C156.743 149.14 156.291 148.981 155.992 148.664C155.703 148.347 155.558 147.959 155.558 147.502V143.12H154.382L154.494 142.14H155.558V140.446L156.818 140.32V142.14H158.624V143.12H156.818V146.732C156.818 147.208 156.846 147.535 156.902 147.712C156.958 147.889 157.075 148.006 157.252 148.062C157.439 148.109 157.775 148.132 158.26 148.132H158.582L158.484 149.14H157.35ZM162.936 149.14C162.152 149.14 161.48 148.981 160.92 148.664C160.369 148.337 159.949 147.899 159.66 147.348C159.371 146.797 159.226 146.186 159.226 145.514C159.226 144.87 159.357 144.282 159.618 143.75C159.889 143.209 160.276 142.784 160.78 142.476C161.293 142.159 161.895 142 162.586 142C163.463 142 164.173 142.257 164.714 142.77C165.265 143.283 165.54 143.993 165.54 144.898C165.54 145.131 165.521 145.355 165.484 145.57H160.514C160.598 146.457 160.869 147.087 161.326 147.46C161.783 147.833 162.371 148.02 163.09 148.02C163.809 148.02 164.467 147.885 165.064 147.614L165.232 148.608C164.439 148.963 163.673 149.14 162.936 149.14ZM164.238 144.702C164.238 144.207 164.098 143.82 163.818 143.54C163.538 143.26 163.118 143.12 162.558 143.12C162.017 143.12 161.592 143.255 161.284 143.526C160.976 143.787 160.757 144.179 160.626 144.702H164.238ZM172.886 138.5V149H171.766L171.626 148.16C171.393 148.477 171.089 148.72 170.716 148.888C170.343 149.056 169.946 149.14 169.526 149.14C168.947 149.14 168.42 148.981 167.944 148.664C167.468 148.347 167.09 147.917 166.81 147.376C166.539 146.835 166.404 146.237 166.404 145.584C166.404 144.949 166.53 144.357 166.782 143.806C167.043 143.255 167.412 142.817 167.888 142.49C168.364 142.163 168.91 142 169.526 142C169.937 142 170.324 142.075 170.688 142.224C171.052 142.373 171.365 142.602 171.626 142.91V138.5H172.886ZM169.75 148.02C170.086 148.02 170.408 147.936 170.716 147.768C171.024 147.591 171.276 147.32 171.472 146.956C171.668 146.592 171.766 146.135 171.766 145.584C171.766 145.071 171.668 144.627 171.472 144.254C171.276 143.881 171.019 143.601 170.702 143.414C170.394 143.218 170.077 143.12 169.75 143.12C169.115 143.12 168.611 143.353 168.238 143.82C167.874 144.277 167.692 144.865 167.692 145.584C167.692 146.275 167.879 146.853 168.252 147.32C168.625 147.787 169.125 148.02 169.75 148.02Z" fill="black"/>
<path d="M233.306 139.2H234.636V143.246H239.62V139.2H240.95V149H239.62V144.506H234.636V149H233.306V139.2ZM245.729 149.14C245.029 149.14 244.422 148.986 243.909 148.678C243.396 148.361 243.004 147.931 242.733 147.39C242.462 146.849 242.327 146.242 242.327 145.57C242.327 144.898 242.462 144.291 242.733 143.75C243.004 143.209 243.396 142.784 243.909 142.476C244.422 142.159 245.029 142 245.729 142C246.42 142 247.022 142.159 247.535 142.476C248.058 142.784 248.454 143.209 248.725 143.75C248.996 144.291 249.131 144.898 249.131 145.57C249.131 146.242 248.996 146.849 248.725 147.39C248.454 147.931 248.058 148.361 247.535 148.678C247.022 148.986 246.42 149.14 245.729 149.14ZM245.729 148.02C246.401 148.02 246.919 147.805 247.283 147.376C247.656 146.947 247.843 146.345 247.843 145.57C247.843 144.795 247.656 144.193 247.283 143.764C246.919 143.335 246.401 143.12 245.729 143.12C245.057 143.12 244.534 143.335 244.161 143.764C243.797 144.193 243.615 144.795 243.615 145.57C243.615 146.345 243.797 146.947 244.161 147.376C244.534 147.805 245.057 148.02 245.729 148.02ZM249.579 142.14H250.979L252.897 147.614L254.801 142.14H256.215L253.611 149H252.197L249.579 142.14ZM260.365 149.14C259.581 149.14 258.909 148.981 258.349 148.664C257.798 148.337 257.378 147.899 257.089 147.348C256.799 146.797 256.655 146.186 256.655 145.514C256.655 144.87 256.785 144.282 257.047 143.75C257.317 143.209 257.705 142.784 258.209 142.476C258.722 142.159 259.324 142 260.015 142C260.892 142 261.601 142.257 262.143 142.77C262.693 143.283 262.969 143.993 262.969 144.898C262.969 145.131 262.95 145.355 262.913 145.57H257.943C258.027 146.457 258.297 147.087 258.755 147.46C259.212 147.833 259.8 148.02 260.519 148.02C261.237 148.02 261.895 147.885 262.493 147.614L262.661 148.608C261.867 148.963 261.102 149.14 260.365 149.14ZM261.667 144.702C261.667 144.207 261.527 143.82 261.247 143.54C260.967 143.26 260.547 143.12 259.987 143.12C259.445 143.12 259.021 143.255 258.713 143.526C258.405 143.787 258.185 144.179 258.055 144.702H261.667ZM264.239 142.14H265.275L265.429 143.274C265.783 142.835 266.119 142.513 266.437 142.308C266.763 142.103 267.104 142 267.459 142C267.571 142 267.678 142.014 267.781 142.042L267.655 143.428C267.533 143.4 267.393 143.386 267.235 143.386C266.889 143.386 266.563 143.465 266.255 143.624C265.947 143.773 265.723 143.951 265.583 144.156V149H264.239V142.14Z" fill="black"/>
<path d="M328.073 149.196C327.495 149.196 326.907 149.131 326.309 149C325.712 148.879 325.231 148.734 324.867 148.566L325.049 147.152C325.516 147.376 326.043 147.572 326.631 147.74C327.219 147.908 327.803 147.992 328.381 147.992C329.035 147.992 329.539 147.875 329.893 147.642C330.257 147.399 330.439 147.04 330.439 146.564C330.439 146.209 330.346 145.915 330.159 145.682C329.982 145.439 329.716 145.239 329.361 145.08C329.016 144.912 328.531 144.735 327.905 144.548C327.271 144.361 326.743 144.161 326.323 143.946C325.903 143.731 325.563 143.437 325.301 143.064C325.049 142.691 324.923 142.219 324.923 141.65C324.923 140.857 325.227 140.217 325.833 139.732C326.449 139.247 327.313 139.004 328.423 139.004C329.021 139.004 329.585 139.069 330.117 139.2C330.659 139.331 331.13 139.489 331.531 139.676L331.391 141.09C330.869 140.782 330.365 140.558 329.879 140.418C329.394 140.278 328.89 140.208 328.367 140.208C327.761 140.208 327.275 140.32 326.911 140.544C326.557 140.768 326.379 141.113 326.379 141.58C326.379 141.897 326.459 142.159 326.617 142.364C326.785 142.569 327.023 142.747 327.331 142.896C327.639 143.036 328.069 143.19 328.619 143.358C329.721 143.694 330.542 144.095 331.083 144.562C331.625 145.019 331.895 145.654 331.895 146.466C331.895 147.325 331.573 147.997 330.929 148.482C330.285 148.958 329.333 149.196 328.073 149.196ZM336.473 149.14C335.689 149.14 335.017 148.981 334.457 148.664C333.906 148.337 333.486 147.899 333.197 147.348C332.908 146.797 332.763 146.186 332.763 145.514C332.763 144.87 332.894 144.282 333.155 143.75C333.426 143.209 333.813 142.784 334.317 142.476C334.83 142.159 335.432 142 336.123 142C337 142 337.71 142.257 338.251 142.77C338.802 143.283 339.077 143.993 339.077 144.898C339.077 145.131 339.058 145.355 339.021 145.57H334.051C334.135 146.457 334.406 147.087 334.863 147.46C335.32 147.833 335.908 148.02 336.627 148.02C337.346 148.02 338.004 147.885 338.601 147.614L338.769 148.608C337.976 148.963 337.21 149.14 336.473 149.14ZM337.775 144.702C337.775 144.207 337.635 143.82 337.355 143.54C337.075 143.26 336.655 143.12 336.095 143.12C335.554 143.12 335.129 143.255 334.821 143.526C334.513 143.787 334.294 144.179 334.163 144.702H337.775ZM342.111 149.14C341.495 149.14 341.042 148.981 340.753 148.664C340.473 148.347 340.333 147.955 340.333 147.488V138.5H341.593V146.76C341.593 147.171 341.616 147.469 341.663 147.656C341.719 147.843 341.822 147.969 341.971 148.034C342.12 148.099 342.363 148.132 342.699 148.132L342.517 149.14H342.111ZM346.877 149.14C346.093 149.14 345.421 148.981 344.861 148.664C344.311 148.337 343.891 147.899 343.601 147.348C343.312 146.797 343.167 146.186 343.167 145.514C343.167 144.87 343.298 144.282 343.559 143.75C343.83 143.209 344.217 142.784 344.721 142.476C345.235 142.159 345.837 142 346.527 142C347.405 142 348.114 142.257 348.655 142.77C349.206 143.283 349.481 143.993 349.481 144.898C349.481 145.131 349.463 145.355 349.425 145.57H344.455C344.539 146.457 344.81 147.087 345.267 147.46C345.725 147.833 346.313 148.02 347.031 148.02C347.75 148.02 348.408 147.885 349.005 147.614L349.173 148.608C348.38 148.963 347.615 149.14 346.877 149.14ZM348.179 144.702C348.179 144.207 348.039 143.82 347.759 143.54C347.479 143.26 347.059 143.12 346.499 143.12C345.958 143.12 345.533 143.255 345.225 143.526C344.917 143.787 344.698 144.179 344.567 144.702H348.179ZM353.901 149.14C353.155 149.14 352.511 148.986 351.969 148.678C351.437 148.37 351.036 147.95 350.765 147.418C350.495 146.877 350.359 146.275 350.359 145.612C350.359 144.529 350.663 143.657 351.269 142.994C351.885 142.331 352.795 142 353.999 142C354.709 142 355.334 142.135 355.875 142.406L355.679 143.512C355.11 143.251 354.541 143.12 353.971 143.12C353.225 143.12 352.651 143.335 352.249 143.764C351.848 144.184 351.647 144.781 351.647 145.556C351.647 146.331 351.839 146.937 352.221 147.376C352.613 147.815 353.187 148.034 353.943 148.034C354.55 148.034 355.133 147.894 355.693 147.614L355.861 148.622C355.656 148.762 355.371 148.883 355.007 148.986C354.653 149.089 354.284 149.14 353.901 149.14ZM359.475 149.14C358.868 149.14 358.416 148.981 358.117 148.664C357.828 148.347 357.683 147.959 357.683 147.502V143.12H356.507L356.619 142.14H357.683V140.446L358.943 140.32V142.14H360.749V143.12H358.943V146.732C358.943 147.208 358.971 147.535 359.027 147.712C359.083 147.889 359.2 148.006 359.377 148.062C359.564 148.109 359.9 148.132 360.385 148.132H360.707L360.609 149.14H359.475ZM365.061 149.14C364.277 149.14 363.605 148.981 363.045 148.664C362.494 148.337 362.074 147.899 361.785 147.348C361.496 146.797 361.351 146.186 361.351 145.514C361.351 144.87 361.482 144.282 361.743 143.75C362.014 143.209 362.401 142.784 362.905 142.476C363.418 142.159 364.02 142 364.711 142C365.588 142 366.298 142.257 366.839 142.77C367.39 143.283 367.665 143.993 367.665 144.898C367.665 145.131 367.646 145.355 367.609 145.57H362.639C362.723 146.457 362.994 147.087 363.451 147.46C363.908 147.833 364.496 148.02 365.215 148.02C365.934 148.02 366.592 147.885 367.189 147.614L367.357 148.608C366.564 148.963 365.798 149.14 365.061 149.14ZM366.363 144.702C366.363 144.207 366.223 143.82 365.943 143.54C365.663 143.26 365.243 143.12 364.683 143.12C364.142 143.12 363.717 143.255 363.409 143.526C363.101 143.787 362.882 144.179 362.751 144.702H366.363ZM375.011 138.5V149H373.891L373.751 148.16C373.518 148.477 373.214 148.72 372.841 148.888C372.468 149.056 372.071 149.14 371.651 149.14C371.072 149.14 370.545 148.981 370.069 148.664C369.593 148.347 369.215 147.917 368.935 147.376C368.664 146.835 368.529 146.237 368.529 145.584C368.529 144.949 368.655 144.357 368.907 143.806C369.168 143.255 369.537 142.817 370.013 142.49C370.489 142.163 371.035 142 371.651 142C372.062 142 372.449 142.075 372.813 142.224C373.177 142.373 373.49 142.602 373.751 142.91V138.5H375.011ZM371.875 148.02C372.211 148.02 372.533 147.936 372.841 147.768C373.149 147.591 373.401 147.32 373.597 146.956C373.793 146.592 373.891 146.135 373.891 145.584C373.891 145.071 373.793 144.627 373.597 144.254C373.401 143.881 373.144 143.601 372.827 143.414C372.519 143.218 372.202 143.12 371.875 143.12C371.24 143.12 370.736 143.353 370.363 143.82C369.999 144.277 369.817 144.865 369.817 145.584C369.817 146.275 370.004 146.853 370.377 147.32C370.75 147.787 371.25 148.02 371.875 148.02Z" fill="black"/>
<g clip-path="url(#clip0_8_646)">
<path d="M363.625 82.625H337.375C335.313 82.625 333.625 84.3125 333.625 86.375V112.625C333.625 114.688 335.313 116.375 337.375 116.375H363.625C365.688 116.375 367.375 114.688 367.375 112.625V86.375C367.375 84.3125 365.688 82.625 363.625 82.625ZM348.081 107.544C347.35 108.275 346.169 108.275 345.438 107.544L338.706 100.812C337.975 100.081 337.975 98.9 338.706 98.1687C339.438 97.4375 340.619 97.4375 341.35 98.1687L346.75 103.569L359.65 90.6687C360.381 89.9375 361.563 89.9375 362.294 90.6687C363.025 91.4 363.025 92.5812 362.294 93.3125L348.081 107.544Z" fill="#3B755F"/>
</g>
<path d="M42.5146 39.336C40.8186 39.336 39.3146 38.976 38.0026 38.256C36.7066 37.536 35.6986 36.52 34.9786 35.208C34.2586 33.88 33.8986 32.344 33.8986 30.6C33.8986 28.872 34.2666 27.352 35.0026 26.04C35.7546 24.712 36.7866 23.688 38.0986 22.968C39.4266 22.232 40.9306 21.864 42.6106 21.864C44.2266 21.864 45.6746 22.192 46.9546 22.848L46.6186 25.776C45.9306 25.472 45.2666 25.24 44.6266 25.08C44.0026 24.904 43.3226 24.816 42.5866 24.816C40.8746 24.816 39.5546 25.344 38.6266 26.4C37.7146 27.456 37.2586 28.856 37.2586 30.6C37.2586 32.344 37.7066 33.744 38.6026 34.8C39.5146 35.856 40.8186 36.384 42.5146 36.384C43.2666 36.384 43.9546 36.304 44.5786 36.144C45.2186 35.984 45.8986 35.744 46.6186 35.424L46.9546 38.352C45.5626 39.008 44.0826 39.336 42.5146 39.336ZM55.1236 26.808C56.6436 26.808 57.7716 27.304 58.5076 28.296C59.2596 29.272 59.6356 30.616 59.6356 32.328V39H56.6596V32.544C56.6596 31.408 56.4756 30.576 56.1076 30.048C55.7396 29.52 55.1556 29.256 54.3556 29.256C53.4116 29.256 52.6356 29.6 52.0276 30.288V39H49.0516V21H52.0276V27.768C52.5076 27.464 52.9956 27.232 53.4916 27.072C53.9876 26.896 54.5316 26.808 55.1236 26.808ZM68.0783 39.24C66.6863 39.24 65.4943 38.96 64.5023 38.4C63.5263 37.824 62.7903 37.064 62.2943 36.12C61.8143 35.16 61.5743 34.096 61.5743 32.928C61.5743 31.808 61.8063 30.784 62.2703 29.856C62.7343 28.928 63.4063 28.192 64.2863 27.648C65.1663 27.088 66.2143 26.808 67.4303 26.808C68.5503 26.808 69.4943 27.04 70.2623 27.504C71.0463 27.968 71.6303 28.592 72.0143 29.376C72.4143 30.16 72.6143 31.04 72.6143 32.016C72.6143 32.496 72.5503 33.04 72.4223 33.648H64.6703C64.8303 34.704 65.2463 35.496 65.9183 36.024C66.5903 36.536 67.3983 36.792 68.3423 36.792C69.6383 36.792 70.8383 36.464 71.9423 35.808L72.0863 38.328C71.5743 38.6 70.9743 38.824 70.2863 39C69.6143 39.16 68.8783 39.24 68.0783 39.24ZM69.5903 31.632C69.5903 31.008 69.4143 30.456 69.0623 29.976C68.7103 29.496 68.1663 29.256 67.4303 29.256C66.6943 29.256 66.1023 29.472 65.6543 29.904C65.2063 30.336 64.9023 30.912 64.7423 31.632H69.5903ZM80.2139 39.24C78.8859 39.24 77.7419 38.968 76.7819 38.424C75.8379 37.864 75.1259 37.112 74.6459 36.168C74.1659 35.224 73.9259 34.176 73.9259 33.024C73.9259 31.856 74.1659 30.8 74.6459 29.856C75.1259 28.896 75.8459 28.144 76.8059 27.6C77.7659 27.04 78.9339 26.76 80.3099 26.76C81.5419 26.76 82.6139 27.016 83.5259 27.528L83.2859 29.928C82.4219 29.48 81.5259 29.256 80.5979 29.256C79.4619 29.256 78.5739 29.6 77.9339 30.288C77.2939 30.976 76.9739 31.888 76.9739 33.024C76.9739 34.112 77.3019 35.016 77.9579 35.736C78.6139 36.44 79.4859 36.792 80.5739 36.792C81.4859 36.792 82.3979 36.528 83.3099 36L83.5739 38.52C83.1419 38.744 82.6299 38.92 82.0379 39.048C81.4619 39.176 80.8539 39.24 80.2139 39.24ZM85.5438 21H88.5198V31.92L92.2398 27H95.5998L91.2318 32.76L95.6958 39H92.3358L88.5198 33.672V39H85.5438V21ZM103.456 26.808C104.592 26.808 105.568 27.088 106.384 27.648C107.2 28.208 107.816 28.96 108.232 29.904C108.648 30.848 108.856 31.888 108.856 33.024C108.856 34.16 108.648 35.2 108.232 36.144C107.816 37.088 107.2 37.84 106.384 38.4C105.568 38.96 104.592 39.24 103.456 39.24C102.192 39.24 101.048 38.896 100.024 38.208L99.9762 39H97.1922V21H100.168V27.888C101.144 27.168 102.24 26.808 103.456 26.808ZM103.024 36.792C103.904 36.792 104.584 36.448 105.064 35.76C105.56 35.072 105.808 34.16 105.808 33.024C105.808 31.888 105.56 30.976 105.064 30.288C104.584 29.6 103.904 29.256 103.024 29.256C102.016 29.256 101.264 29.592 100.768 30.264C100.272 30.936 100.024 31.856 100.024 33.024C100.024 34.192 100.272 35.112 100.768 35.784C101.264 36.456 102.016 36.792 103.024 36.792ZM116.375 39.24C115.111 39.24 114.015 38.96 113.087 38.4C112.159 37.84 111.447 37.088 110.951 36.144C110.455 35.2 110.207 34.16 110.207 33.024C110.207 31.888 110.455 30.84 110.951 29.88C111.447 28.92 112.159 28.16 113.087 27.6C114.015 27.04 115.111 26.76 116.375 26.76C117.639 26.76 118.735 27.04 119.663 27.6C120.591 28.16 121.303 28.92 121.799 29.88C122.295 30.84 122.543 31.888 122.543 33.024C122.543 34.16 122.295 35.2 121.799 36.144C121.303 37.088 120.591 37.84 119.663 38.4C118.735 38.96 117.639 39.24 116.375 39.24ZM116.375 36.792C117.351 36.792 118.111 36.448 118.655 35.76C119.215 35.072 119.495 34.16 119.495 33.024C119.495 31.872 119.215 30.952 118.655 30.264C118.111 29.56 117.351 29.208 116.375 29.208C115.399 29.208 114.631 29.56 114.071 30.264C113.527 30.952 113.255 31.872 113.255 33.024C113.255 34.16 113.527 35.072 114.071 35.76C114.631 36.448 115.399 36.792 116.375 36.792ZM127.072 33L123.088 27H126.64L128.824 30.48L130.84 27H134.392L130.408 33L134.392 39H130.84L128.656 35.52L126.64 39H123.088L127.072 33ZM144.827 39.24C144.059 39.24 143.355 39.168 142.715 39.024C142.091 38.88 141.443 38.656 140.771 38.352L141.035 35.808C141.707 36.208 142.331 36.512 142.907 36.72C143.499 36.912 144.107 37.008 144.731 37.008C145.947 37.008 146.555 36.608 146.555 35.808C146.555 35.376 146.395 35.048 146.075 34.824C145.755 34.584 145.179 34.304 144.347 33.984C143.163 33.552 142.291 33.064 141.731 32.52C141.171 31.96 140.891 31.208 140.891 30.264C140.891 29.224 141.291 28.384 142.091 27.744C142.891 27.088 143.971 26.76 145.331 26.76C146.691 26.76 147.931 27.072 149.051 27.696L148.787 30.24C148.179 29.824 147.603 29.504 147.059 29.28C146.531 29.056 145.971 28.944 145.379 28.944C144.867 28.944 144.467 29.048 144.179 29.256C143.907 29.464 143.771 29.76 143.771 30.144C143.771 30.448 143.851 30.696 144.011 30.888C144.187 31.08 144.427 31.256 144.731 31.416C145.035 31.56 145.539 31.768 146.243 32.04C147.411 32.488 148.251 32.984 148.763 33.528C149.275 34.056 149.531 34.768 149.531 35.664C149.531 36.8 149.123 37.68 148.307 38.304C147.491 38.928 146.331 39.24 144.827 39.24ZM155.48 39.24C154.424 39.24 153.624 38.936 153.08 38.328C152.536 37.704 152.264 36.96 152.264 36.096V29.448H150.56L150.824 27H152.264V24.36L155.24 24.048V27H157.88V29.448H155.24V34.872C155.24 35.512 155.272 35.96 155.336 36.216C155.416 36.456 155.568 36.616 155.792 36.696C156.032 36.76 156.456 36.792 157.064 36.792H157.88L157.616 39.24H155.48ZM162.41 39.24C161.418 39.24 160.586 38.92 159.914 38.28C159.258 37.624 158.93 36.744 158.93 35.64C158.93 34.6 159.306 33.768 160.058 33.144C160.81 32.504 161.698 32.056 162.722 31.8C163.746 31.528 164.73 31.376 165.674 31.344C165.642 30.64 165.458 30.136 165.122 29.832C164.802 29.528 164.266 29.376 163.514 29.376C162.986 29.376 162.466 29.448 161.954 29.592C161.458 29.736 160.882 29.968 160.226 30.288L159.962 27.864C161.418 27.16 162.874 26.808 164.33 26.808C165.738 26.808 166.81 27.192 167.546 27.96C168.298 28.728 168.674 29.952 168.674 31.632V34.872C168.674 35.48 168.698 35.92 168.746 36.192C168.81 36.448 168.906 36.616 169.034 36.696C169.178 36.76 169.41 36.792 169.73 36.792H170.114L169.85 39.24H168.77C168.114 39.24 167.562 39.12 167.114 38.88C166.666 38.624 166.322 38.28 166.082 37.848C165.698 38.28 165.17 38.624 164.498 38.88C163.842 39.12 163.146 39.24 162.41 39.24ZM163.658 36.96C163.962 36.96 164.306 36.888 164.69 36.744C165.074 36.584 165.41 36.368 165.698 36.096V33.36C164.738 33.408 163.89 33.616 163.154 33.984C162.418 34.352 162.05 34.864 162.05 35.52C162.05 36.016 162.178 36.384 162.434 36.624C162.69 36.848 163.098 36.96 163.658 36.96ZM175.495 39.24C174.439 39.24 173.639 38.936 173.095 38.328C172.551 37.704 172.279 36.96 172.279 36.096V29.448H170.575L170.839 27H172.279V24.36L175.255 24.048V27H177.895V29.448H175.255V34.872C175.255 35.512 175.287 35.96 175.351 36.216C175.431 36.456 175.583 36.616 175.807 36.696C176.047 36.76 176.471 36.792 177.079 36.792H177.895L177.631 39.24H175.495ZM185.617 39.24C184.225 39.24 183.033 38.96 182.041 38.4C181.065 37.824 180.329 37.064 179.833 36.12C179.353 35.16 179.113 34.096 179.113 32.928C179.113 31.808 179.345 30.784 179.809 29.856C180.273 28.928 180.945 28.192 181.825 27.648C182.705 27.088 183.753 26.808 184.969 26.808C186.089 26.808 187.033 27.04 187.801 27.504C188.585 27.968 189.169 28.592 189.553 29.376C189.953 30.16 190.153 31.04 190.153 32.016C190.153 32.496 190.089 33.04 189.961 33.648H182.209C182.369 34.704 182.785 35.496 183.457 36.024C184.129 36.536 184.937 36.792 185.881 36.792C187.177 36.792 188.377 36.464 189.481 35.808L189.625 38.328C189.113 38.6 188.513 38.824 187.825 39C187.153 39.16 186.417 39.24 185.617 39.24ZM187.129 31.632C187.129 31.008 186.953 30.456 186.601 29.976C186.249 29.496 185.705 29.256 184.969 29.256C184.233 29.256 183.641 29.472 183.193 29.904C182.745 30.336 182.441 30.912 182.281 31.632H187.129ZM195.593 39.24C194.825 39.24 194.121 39.168 193.481 39.024C192.857 38.88 192.209 38.656 191.537 38.352L191.801 35.808C192.473 36.208 193.097 36.512 193.673 36.72C194.265 36.912 194.873 37.008 195.497 37.008C196.713 37.008 197.321 36.608 197.321 35.808C197.321 35.376 197.161 35.048 196.841 34.824C196.521 34.584 195.945 34.304 195.113 33.984C193.929 33.552 193.057 33.064 192.497 32.52C191.937 31.96 191.657 31.208 191.657 30.264C191.657 29.224 192.057 28.384 192.857 27.744C193.657 27.088 194.737 26.76 196.097 26.76C197.457 26.76 198.697 27.072 199.817 27.696L199.553 30.24C198.945 29.824 198.369 29.504 197.825 29.28C197.297 29.056 196.737 28.944 196.145 28.944C195.633 28.944 195.233 29.048 194.945 29.256C194.673 29.464 194.537 29.76 194.537 30.144C194.537 30.448 194.617 30.696 194.777 30.888C194.953 31.08 195.193 31.256 195.497 31.416C195.801 31.56 196.305 31.768 197.009 32.04C198.177 32.488 199.017 32.984 199.529 33.528C200.041 34.056 200.297 34.768 200.297 35.664C200.297 36.8 199.889 37.68 199.073 38.304C198.257 38.928 197.097 39.24 195.593 39.24Z" fill="black"/>
<g clip-path="url(#clip1_8_646)">
<path d="M151.75 112.625H129.25C128.219 112.625 127.375 111.781 127.375 110.75V88.25C127.375 87.2188 128.219 86.375 129.25 86.375H151.75C152.781 86.375 153.625 87.2188 153.625 88.25V110.75C153.625 111.781 152.781 112.625 151.75 112.625ZM153.625 82.625H127.375C125.312 82.625 123.625 84.3125 123.625 86.375V112.625C123.625 114.688 125.312 116.375 127.375 116.375H153.625C155.688 116.375 157.375 114.688 157.375 112.625V86.375C157.375 84.3125 155.688 82.625 153.625 82.625Z" fill="#212121"/>
</g>
<g clip-path="url(#clip2_8_646)">
<path d="M261.75 112.625H239.25C238.219 112.625 237.375 111.781 237.375 110.75V88.25C237.375 87.2188 238.219 86.375 239.25 86.375H261.75C262.781 86.375 263.625 87.2188 263.625 88.25V110.75C263.625 111.781 262.781 112.625 261.75 112.625ZM263.625 82.625H237.375C235.312 82.625 233.625 84.3125 233.625 86.375V112.625C233.625 114.688 235.312 116.375 237.375 116.375H263.625C265.688 116.375 267.375 114.688 267.375 112.625V86.375C267.375 84.3125 265.688 82.625 263.625 82.625Z" fill="#212121"/>
</g>
<circle opacity="0.5" cx="251" cy="100" r="35" fill="#AFC6BD"/>
<defs>
<clipPath id="clip0_8_646">
<rect width="45" height="45" fill="white" transform="translate(328 77)"/>
</clipPath>
<clipPath id="clip1_8_646">
<rect width="45" height="45" fill="white" transform="translate(118 77)"/>
</clipPath>
<clipPath id="clip2_8_646">
<rect width="45" height="45" fill="white" transform="translate(228 77)"/>
</clipPath>
</defs>
</svg>
