<svg width="498" height="164" viewBox="0 0 498 164" fill="none" xmlns="http://www.w3.org/2000/svg">
<rect width="498" height="164" fill="#F9F9F9"/>
<path d="M115.398 138.2H116.84L121.67 145.536V138.2H123.014V148H121.88L116.728 140.258V148H115.398V138.2ZM127.794 148.14C127.094 148.14 126.488 147.986 125.974 147.678C125.461 147.361 125.069 146.931 124.798 146.39C124.528 145.849 124.392 145.242 124.392 144.57C124.392 143.898 124.528 143.291 124.798 142.75C125.069 142.209 125.461 141.784 125.974 141.476C126.488 141.159 127.094 141 127.794 141C128.485 141 129.087 141.159 129.6 141.476C130.123 141.784 130.52 142.209 130.79 142.75C131.061 143.291 131.196 143.898 131.196 144.57C131.196 145.242 131.061 145.849 130.79 146.39C130.52 146.931 130.123 147.361 129.6 147.678C129.087 147.986 128.485 148.14 127.794 148.14ZM127.794 147.02C128.466 147.02 128.984 146.805 129.348 146.376C129.722 145.947 129.908 145.345 129.908 144.57C129.908 143.795 129.722 143.193 129.348 142.764C128.984 142.335 128.466 142.12 127.794 142.12C127.122 142.12 126.6 142.335 126.226 142.764C125.862 143.193 125.68 143.795 125.68 144.57C125.68 145.345 125.862 145.947 126.226 146.376C126.6 146.805 127.122 147.02 127.794 147.02ZM134.766 148.14C134.159 148.14 133.707 147.981 133.408 147.664C133.119 147.347 132.974 146.959 132.974 146.502V142.12H131.798L131.91 141.14H132.974V139.446L134.234 139.32V141.14H136.04V142.12H134.234V145.732C134.234 146.208 134.262 146.535 134.318 146.712C134.374 146.889 134.491 147.006 134.668 147.062C134.855 147.109 135.191 147.132 135.676 147.132H135.998L135.9 148.14H134.766ZM142.207 148.14C141.666 148.14 141.19 148.079 140.779 147.958C140.378 147.827 140.07 147.687 139.855 147.538L140.009 146.32C140.196 146.488 140.481 146.647 140.863 146.796C141.255 146.945 141.685 147.02 142.151 147.02C142.59 147.02 142.926 146.945 143.159 146.796C143.402 146.647 143.523 146.437 143.523 146.166C143.523 145.849 143.393 145.611 143.131 145.452C142.87 145.284 142.543 145.144 142.151 145.032C141.722 144.92 141.358 144.803 141.059 144.682C140.77 144.551 140.518 144.355 140.303 144.094C140.098 143.833 139.995 143.487 139.995 143.058C139.995 142.47 140.205 141.98 140.625 141.588C141.045 141.196 141.694 141 142.571 141C142.973 141 143.313 141.042 143.593 141.126C143.873 141.201 144.153 141.308 144.433 141.448L144.279 142.596C144.055 142.409 143.808 142.265 143.537 142.162C143.267 142.05 142.954 141.994 142.599 141.994C142.189 141.994 141.862 142.073 141.619 142.232C141.386 142.381 141.269 142.61 141.269 142.918C141.269 143.123 141.325 143.291 141.437 143.422C141.549 143.543 141.708 143.646 141.913 143.73C142.119 143.814 142.436 143.921 142.865 144.052C143.397 144.211 143.855 144.435 144.237 144.724C144.629 145.013 144.825 145.471 144.825 146.096C144.825 146.656 144.625 147.137 144.223 147.538C143.831 147.939 143.159 148.14 142.207 148.14ZM149.348 148.14C148.564 148.14 147.892 147.981 147.332 147.664C146.781 147.337 146.361 146.899 146.072 146.348C145.783 145.797 145.638 145.186 145.638 144.514C145.638 143.87 145.769 143.282 146.03 142.75C146.301 142.209 146.688 141.784 147.192 141.476C147.705 141.159 148.307 141 148.998 141C149.875 141 150.585 141.257 151.126 141.77C151.677 142.283 151.952 142.993 151.952 143.898C151.952 144.131 151.933 144.355 151.896 144.57H146.926C147.01 145.457 147.281 146.087 147.738 146.46C148.195 146.833 148.783 147.02 149.502 147.02C150.221 147.02 150.879 146.885 151.476 146.614L151.644 147.608C150.851 147.963 150.085 148.14 149.348 148.14ZM150.65 143.702C150.65 143.207 150.51 142.82 150.23 142.54C149.95 142.26 149.53 142.12 148.97 142.12C148.429 142.12 148.004 142.255 147.696 142.526C147.388 142.787 147.169 143.179 147.038 143.702H150.65ZM154.986 148.14C154.37 148.14 153.917 147.981 153.628 147.664C153.348 147.347 153.208 146.955 153.208 146.488V137.5H154.468V145.76C154.468 146.171 154.491 146.469 154.538 146.656C154.594 146.843 154.697 146.969 154.846 147.034C154.995 147.099 155.238 147.132 155.574 147.132L155.392 148.14H154.986ZM159.752 148.14C158.968 148.14 158.296 147.981 157.736 147.664C157.186 147.337 156.766 146.899 156.476 146.348C156.187 145.797 156.042 145.186 156.042 144.514C156.042 143.87 156.173 143.282 156.434 142.75C156.705 142.209 157.092 141.784 157.596 141.476C158.11 141.159 158.712 141 159.402 141C160.28 141 160.989 141.257 161.53 141.77C162.081 142.283 162.356 142.993 162.356 143.898C162.356 144.131 162.338 144.355 162.3 144.57H157.33C157.414 145.457 157.685 146.087 158.142 146.46C158.6 146.833 159.188 147.02 159.906 147.02C160.625 147.02 161.283 146.885 161.88 146.614L162.048 147.608C161.255 147.963 160.49 148.14 159.752 148.14ZM161.054 143.702C161.054 143.207 160.914 142.82 160.634 142.54C160.354 142.26 159.934 142.12 159.374 142.12C158.833 142.12 158.408 142.255 158.1 142.526C157.792 142.787 157.573 143.179 157.442 143.702H161.054ZM166.776 148.14C166.03 148.14 165.386 147.986 164.844 147.678C164.312 147.37 163.911 146.95 163.64 146.418C163.37 145.877 163.234 145.275 163.234 144.612C163.234 143.529 163.538 142.657 164.144 141.994C164.76 141.331 165.67 141 166.874 141C167.584 141 168.209 141.135 168.75 141.406L168.554 142.512C167.985 142.251 167.416 142.12 166.846 142.12C166.1 142.12 165.526 142.335 165.124 142.764C164.723 143.184 164.522 143.781 164.522 144.556C164.522 145.331 164.714 145.937 165.096 146.376C165.488 146.815 166.062 147.034 166.818 147.034C167.425 147.034 168.008 146.894 168.568 146.614L168.736 147.622C168.531 147.762 168.246 147.883 167.882 147.986C167.528 148.089 167.159 148.14 166.776 148.14ZM172.35 148.14C171.743 148.14 171.291 147.981 170.992 147.664C170.703 147.347 170.558 146.959 170.558 146.502V142.12H169.382L169.494 141.14H170.558V139.446L171.818 139.32V141.14H173.624V142.12H171.818V145.732C171.818 146.208 171.846 146.535 171.902 146.712C171.958 146.889 172.075 147.006 172.252 147.062C172.439 147.109 172.775 147.132 173.26 147.132H173.582L173.484 148.14H172.35ZM177.936 148.14C177.152 148.14 176.48 147.981 175.92 147.664C175.369 147.337 174.949 146.899 174.66 146.348C174.371 145.797 174.226 145.186 174.226 144.514C174.226 143.87 174.357 143.282 174.618 142.75C174.889 142.209 175.276 141.784 175.78 141.476C176.293 141.159 176.895 141 177.586 141C178.463 141 179.173 141.257 179.714 141.77C180.265 142.283 180.54 142.993 180.54 143.898C180.54 144.131 180.521 144.355 180.484 144.57H175.514C175.598 145.457 175.869 146.087 176.326 146.46C176.783 146.833 177.371 147.02 178.09 147.02C178.809 147.02 179.467 146.885 180.064 146.614L180.232 147.608C179.439 147.963 178.673 148.14 177.936 148.14ZM179.238 143.702C179.238 143.207 179.098 142.82 178.818 142.54C178.538 142.26 178.118 142.12 177.558 142.12C177.017 142.12 176.592 142.255 176.284 142.526C175.976 142.787 175.757 143.179 175.626 143.702H179.238ZM187.886 137.5V148H186.766L186.626 147.16C186.393 147.477 186.089 147.72 185.716 147.888C185.343 148.056 184.946 148.14 184.526 148.14C183.947 148.14 183.42 147.981 182.944 147.664C182.468 147.347 182.09 146.917 181.81 146.376C181.539 145.835 181.404 145.237 181.404 144.584C181.404 143.949 181.53 143.357 181.782 142.806C182.043 142.255 182.412 141.817 182.888 141.49C183.364 141.163 183.91 141 184.526 141C184.937 141 185.324 141.075 185.688 141.224C186.052 141.373 186.365 141.602 186.626 141.91V137.5H187.886ZM184.75 147.02C185.086 147.02 185.408 146.936 185.716 146.768C186.024 146.591 186.276 146.32 186.472 145.956C186.668 145.592 186.766 145.135 186.766 144.584C186.766 144.071 186.668 143.627 186.472 143.254C186.276 142.881 186.019 142.601 185.702 142.414C185.394 142.218 185.077 142.12 184.75 142.12C184.115 142.12 183.611 142.353 183.238 142.82C182.874 143.277 182.692 143.865 182.692 144.584C182.692 145.275 182.879 145.853 183.252 146.32C183.625 146.787 184.125 147.02 184.75 147.02Z" fill="black"/>
<path d="M336.073 149.196C335.495 149.196 334.907 149.131 334.309 149C333.712 148.879 333.231 148.734 332.867 148.566L333.049 147.152C333.516 147.376 334.043 147.572 334.631 147.74C335.219 147.908 335.803 147.992 336.381 147.992C337.035 147.992 337.539 147.875 337.893 147.642C338.257 147.399 338.439 147.04 338.439 146.564C338.439 146.209 338.346 145.915 338.159 145.682C337.982 145.439 337.716 145.239 337.361 145.08C337.016 144.912 336.531 144.735 335.905 144.548C335.271 144.361 334.743 144.161 334.323 143.946C333.903 143.731 333.563 143.437 333.301 143.064C333.049 142.691 332.923 142.219 332.923 141.65C332.923 140.857 333.227 140.217 333.833 139.732C334.449 139.247 335.313 139.004 336.423 139.004C337.021 139.004 337.585 139.069 338.117 139.2C338.659 139.331 339.13 139.489 339.531 139.676L339.391 141.09C338.869 140.782 338.365 140.558 337.879 140.418C337.394 140.278 336.89 140.208 336.367 140.208C335.761 140.208 335.275 140.32 334.911 140.544C334.557 140.768 334.379 141.113 334.379 141.58C334.379 141.897 334.459 142.159 334.617 142.364C334.785 142.569 335.023 142.747 335.331 142.896C335.639 143.036 336.069 143.19 336.619 143.358C337.721 143.694 338.542 144.095 339.083 144.562C339.625 145.019 339.895 145.654 339.895 146.466C339.895 147.325 339.573 147.997 338.929 148.482C338.285 148.958 337.333 149.196 336.073 149.196ZM344.473 149.14C343.689 149.14 343.017 148.981 342.457 148.664C341.906 148.337 341.486 147.899 341.197 147.348C340.908 146.797 340.763 146.186 340.763 145.514C340.763 144.87 340.894 144.282 341.155 143.75C341.426 143.209 341.813 142.784 342.317 142.476C342.83 142.159 343.432 142 344.123 142C345 142 345.71 142.257 346.251 142.77C346.802 143.283 347.077 143.993 347.077 144.898C347.077 145.131 347.058 145.355 347.021 145.57H342.051C342.135 146.457 342.406 147.087 342.863 147.46C343.32 147.833 343.908 148.02 344.627 148.02C345.346 148.02 346.004 147.885 346.601 147.614L346.769 148.608C345.976 148.963 345.21 149.14 344.473 149.14ZM345.775 144.702C345.775 144.207 345.635 143.82 345.355 143.54C345.075 143.26 344.655 143.12 344.095 143.12C343.554 143.12 343.129 143.255 342.821 143.526C342.513 143.787 342.294 144.179 342.163 144.702H345.775ZM350.111 149.14C349.495 149.14 349.042 148.981 348.753 148.664C348.473 148.347 348.333 147.955 348.333 147.488V138.5H349.593V146.76C349.593 147.171 349.616 147.469 349.663 147.656C349.719 147.843 349.822 147.969 349.971 148.034C350.12 148.099 350.363 148.132 350.699 148.132L350.517 149.14H350.111ZM354.877 149.14C354.093 149.14 353.421 148.981 352.861 148.664C352.311 148.337 351.891 147.899 351.601 147.348C351.312 146.797 351.167 146.186 351.167 145.514C351.167 144.87 351.298 144.282 351.559 143.75C351.83 143.209 352.217 142.784 352.721 142.476C353.235 142.159 353.837 142 354.527 142C355.405 142 356.114 142.257 356.655 142.77C357.206 143.283 357.481 143.993 357.481 144.898C357.481 145.131 357.463 145.355 357.425 145.57H352.455C352.539 146.457 352.81 147.087 353.267 147.46C353.725 147.833 354.313 148.02 355.031 148.02C355.75 148.02 356.408 147.885 357.005 147.614L357.173 148.608C356.38 148.963 355.615 149.14 354.877 149.14ZM356.179 144.702C356.179 144.207 356.039 143.82 355.759 143.54C355.479 143.26 355.059 143.12 354.499 143.12C353.958 143.12 353.533 143.255 353.225 143.526C352.917 143.787 352.698 144.179 352.567 144.702H356.179ZM361.901 149.14C361.155 149.14 360.511 148.986 359.969 148.678C359.437 148.37 359.036 147.95 358.765 147.418C358.495 146.877 358.359 146.275 358.359 145.612C358.359 144.529 358.663 143.657 359.269 142.994C359.885 142.331 360.795 142 361.999 142C362.709 142 363.334 142.135 363.875 142.406L363.679 143.512C363.11 143.251 362.541 143.12 361.971 143.12C361.225 143.12 360.651 143.335 360.249 143.764C359.848 144.184 359.647 144.781 359.647 145.556C359.647 146.331 359.839 146.937 360.221 147.376C360.613 147.815 361.187 148.034 361.943 148.034C362.55 148.034 363.133 147.894 363.693 147.614L363.861 148.622C363.656 148.762 363.371 148.883 363.007 148.986C362.653 149.089 362.284 149.14 361.901 149.14ZM367.475 149.14C366.868 149.14 366.416 148.981 366.117 148.664C365.828 148.347 365.683 147.959 365.683 147.502V143.12H364.507L364.619 142.14H365.683V140.446L366.943 140.32V142.14H368.749V143.12H366.943V146.732C366.943 147.208 366.971 147.535 367.027 147.712C367.083 147.889 367.2 148.006 367.377 148.062C367.564 148.109 367.9 148.132 368.385 148.132H368.707L368.609 149.14H367.475ZM373.061 149.14C372.277 149.14 371.605 148.981 371.045 148.664C370.494 148.337 370.074 147.899 369.785 147.348C369.496 146.797 369.351 146.186 369.351 145.514C369.351 144.87 369.482 144.282 369.743 143.75C370.014 143.209 370.401 142.784 370.905 142.476C371.418 142.159 372.02 142 372.711 142C373.588 142 374.298 142.257 374.839 142.77C375.39 143.283 375.665 143.993 375.665 144.898C375.665 145.131 375.646 145.355 375.609 145.57H370.639C370.723 146.457 370.994 147.087 371.451 147.46C371.908 147.833 372.496 148.02 373.215 148.02C373.934 148.02 374.592 147.885 375.189 147.614L375.357 148.608C374.564 148.963 373.798 149.14 373.061 149.14ZM374.363 144.702C374.363 144.207 374.223 143.82 373.943 143.54C373.663 143.26 373.243 143.12 372.683 143.12C372.142 143.12 371.717 143.255 371.409 143.526C371.101 143.787 370.882 144.179 370.751 144.702H374.363ZM383.011 138.5V149H381.891L381.751 148.16C381.518 148.477 381.214 148.72 380.841 148.888C380.468 149.056 380.071 149.14 379.651 149.14C379.072 149.14 378.545 148.981 378.069 148.664C377.593 148.347 377.215 147.917 376.935 147.376C376.664 146.835 376.529 146.237 376.529 145.584C376.529 144.949 376.655 144.357 376.907 143.806C377.168 143.255 377.537 142.817 378.013 142.49C378.489 142.163 379.035 142 379.651 142C380.062 142 380.449 142.075 380.813 142.224C381.177 142.373 381.49 142.602 381.751 142.91V138.5H383.011ZM379.875 148.02C380.211 148.02 380.533 147.936 380.841 147.768C381.149 147.591 381.401 147.32 381.597 146.956C381.793 146.592 381.891 146.135 381.891 145.584C381.891 145.071 381.793 144.627 381.597 144.254C381.401 143.881 381.144 143.601 380.827 143.414C380.519 143.218 380.202 143.12 379.875 143.12C379.24 143.12 378.736 143.353 378.363 143.82C377.999 144.277 377.817 144.865 377.817 145.584C377.817 146.275 378.004 146.853 378.377 147.32C378.75 147.787 379.25 148.02 379.875 148.02Z" fill="black"/>
<path d="M58.7451 39.336C57.0491 39.336 55.5451 38.976 54.2331 38.256C52.9371 37.536 51.9291 36.52 51.2091 35.208C50.4891 33.88 50.1291 32.344 50.1291 30.6C50.1291 28.872 50.4971 27.352 51.2331 26.04C51.9851 24.712 53.0171 23.688 54.3291 22.968C55.6571 22.232 57.1611 21.864 58.8411 21.864C60.4571 21.864 61.9051 22.192 63.1851 22.848L62.8491 25.776C62.1611 25.472 61.4971 25.24 60.8571 25.08C60.2331 24.904 59.5531 24.816 58.8171 24.816C57.1051 24.816 55.7851 25.344 54.8571 26.4C53.9451 27.456 53.4891 28.856 53.4891 30.6C53.4891 32.344 53.9371 33.744 54.8331 34.8C55.7451 35.856 57.0491 36.384 58.7451 36.384C59.4971 36.384 60.1851 36.304 60.8091 36.144C61.4491 35.984 62.1291 35.744 62.8491 35.424L63.1851 38.352C61.7931 39.008 60.3131 39.336 58.7451 39.336ZM70.5197 39.24C69.2557 39.24 68.1597 38.96 67.2317 38.4C66.3037 37.84 65.5917 37.088 65.0957 36.144C64.5997 35.2 64.3517 34.16 64.3517 33.024C64.3517 31.888 64.5997 30.84 65.0957 29.88C65.5917 28.92 66.3037 28.16 67.2317 27.6C68.1597 27.04 69.2557 26.76 70.5197 26.76C71.7837 26.76 72.8797 27.04 73.8077 27.6C74.7357 28.16 75.4477 28.92 75.9437 29.88C76.4397 30.84 76.6877 31.888 76.6877 33.024C76.6877 34.16 76.4397 35.2 75.9437 36.144C75.4477 37.088 74.7357 37.84 73.8077 38.4C72.8797 38.96 71.7837 39.24 70.5197 39.24ZM70.5197 36.792C71.4957 36.792 72.2557 36.448 72.7997 35.76C73.3597 35.072 73.6397 34.16 73.6397 33.024C73.6397 31.872 73.3597 30.952 72.7997 30.264C72.2557 29.56 71.4957 29.208 70.5197 29.208C69.5437 29.208 68.7757 29.56 68.2157 30.264C67.6717 30.952 67.3997 31.872 67.3997 33.024C67.3997 34.16 67.6717 35.072 68.2157 35.76C68.7757 36.448 69.5437 36.792 70.5197 36.792ZM81.8312 39.24C80.8072 39.24 80.0392 38.952 79.5272 38.376C79.0152 37.784 78.7592 37.024 78.7592 36.096V21H81.7352V34.872C81.7352 35.512 81.7672 35.968 81.8312 36.24C81.9112 36.496 82.0392 36.656 82.2152 36.72C82.4072 36.768 82.7272 36.792 83.1752 36.792L82.9112 39.24H81.8312ZM90.3947 39.24C89.1307 39.24 88.0347 38.96 87.1067 38.4C86.1787 37.84 85.4667 37.088 84.9707 36.144C84.4747 35.2 84.2267 34.16 84.2267 33.024C84.2267 31.888 84.4747 30.84 84.9707 29.88C85.4667 28.92 86.1787 28.16 87.1067 27.6C88.0347 27.04 89.1307 26.76 90.3947 26.76C91.6587 26.76 92.7547 27.04 93.6827 27.6C94.6107 28.16 95.3227 28.92 95.8187 29.88C96.3147 30.84 96.5627 31.888 96.5627 33.024C96.5627 34.16 96.3147 35.2 95.8187 36.144C95.3227 37.088 94.6107 37.84 93.6827 38.4C92.7547 38.96 91.6587 39.24 90.3947 39.24ZM90.3947 36.792C91.3707 36.792 92.1307 36.448 92.6747 35.76C93.2347 35.072 93.5147 34.16 93.5147 33.024C93.5147 31.872 93.2347 30.952 92.6747 30.264C92.1307 29.56 91.3707 29.208 90.3947 29.208C89.4187 29.208 88.6507 29.56 88.0907 30.264C87.5467 30.952 87.2747 31.872 87.2747 33.024C87.2747 34.16 87.5467 35.072 88.0907 35.76C88.6507 36.448 89.4187 36.792 90.3947 36.792ZM109.098 27V39H106.314L106.266 38.28C105.898 38.552 105.474 38.784 104.994 38.976C104.514 39.152 104.05 39.24 103.602 39.24C101.826 39.24 100.53 38.728 99.7142 37.704C98.9142 36.68 98.5142 35.264 98.5142 33.456V27H101.49V33.456C101.49 34.576 101.674 35.408 102.042 35.952C102.426 36.48 103.034 36.744 103.866 36.744C104.794 36.744 105.546 36.408 106.122 35.736V27H109.098ZM111.876 27H114.66L114.732 28.272C115.084 27.872 115.532 27.52 116.076 27.216C116.636 26.912 117.22 26.76 117.828 26.76C118.02 26.76 118.196 26.776 118.356 26.808L118.14 29.736C117.836 29.656 117.492 29.616 117.108 29.616C116.612 29.616 116.156 29.736 115.74 29.976C115.324 30.2 115.028 30.48 114.852 30.816V39H111.876V27ZM128.597 39.24C127.829 39.24 127.125 39.168 126.485 39.024C125.861 38.88 125.213 38.656 124.541 38.352L124.805 35.808C125.477 36.208 126.101 36.512 126.677 36.72C127.269 36.912 127.877 37.008 128.501 37.008C129.717 37.008 130.325 36.608 130.325 35.808C130.325 35.376 130.165 35.048 129.845 34.824C129.525 34.584 128.949 34.304 128.117 33.984C126.933 33.552 126.061 33.064 125.501 32.52C124.941 31.96 124.661 31.208 124.661 30.264C124.661 29.224 125.061 28.384 125.861 27.744C126.661 27.088 127.741 26.76 129.101 26.76C130.461 26.76 131.701 27.072 132.821 27.696L132.557 30.24C131.949 29.824 131.373 29.504 130.829 29.28C130.301 29.056 129.741 28.944 129.149 28.944C128.637 28.944 128.237 29.048 127.949 29.256C127.677 29.464 127.541 29.76 127.541 30.144C127.541 30.448 127.621 30.696 127.781 30.888C127.957 31.08 128.197 31.256 128.501 31.416C128.805 31.56 129.309 31.768 130.013 32.04C131.181 32.488 132.021 32.984 132.533 33.528C133.045 34.056 133.301 34.768 133.301 35.664C133.301 36.8 132.893 37.68 132.077 38.304C131.261 38.928 130.101 39.24 128.597 39.24ZM139.249 39.24C138.193 39.24 137.393 38.936 136.849 38.328C136.305 37.704 136.033 36.96 136.033 36.096V29.448H134.329L134.593 27H136.033V24.36L139.009 24.048V27H141.649V29.448H139.009V34.872C139.009 35.512 139.041 35.96 139.105 36.216C139.185 36.456 139.337 36.616 139.561 36.696C139.801 36.76 140.225 36.792 140.833 36.792H141.649L141.385 39.24H139.249ZM146.179 39.24C145.187 39.24 144.355 38.92 143.683 38.28C143.027 37.624 142.699 36.744 142.699 35.64C142.699 34.6 143.075 33.768 143.827 33.144C144.579 32.504 145.467 32.056 146.491 31.8C147.515 31.528 148.499 31.376 149.443 31.344C149.411 30.64 149.227 30.136 148.891 29.832C148.571 29.528 148.035 29.376 147.283 29.376C146.755 29.376 146.235 29.448 145.723 29.592C145.227 29.736 144.651 29.968 143.995 30.288L143.731 27.864C145.187 27.16 146.643 26.808 148.099 26.808C149.507 26.808 150.579 27.192 151.315 27.96C152.067 28.728 152.443 29.952 152.443 31.632V34.872C152.443 35.48 152.467 35.92 152.515 36.192C152.579 36.448 152.675 36.616 152.803 36.696C152.947 36.76 153.179 36.792 153.499 36.792H153.883L153.619 39.24H152.539C151.883 39.24 151.331 39.12 150.883 38.88C150.435 38.624 150.091 38.28 149.851 37.848C149.467 38.28 148.939 38.624 148.267 38.88C147.611 39.12 146.915 39.24 146.179 39.24ZM147.427 36.96C147.731 36.96 148.075 36.888 148.459 36.744C148.843 36.584 149.179 36.368 149.467 36.096V33.36C148.507 33.408 147.659 33.616 146.923 33.984C146.187 34.352 145.819 34.864 145.819 35.52C145.819 36.016 145.947 36.384 146.203 36.624C146.459 36.848 146.867 36.96 147.427 36.96ZM159.265 39.24C158.209 39.24 157.409 38.936 156.865 38.328C156.321 37.704 156.049 36.96 156.049 36.096V29.448H154.345L154.609 27H156.049V24.36L159.025 24.048V27H161.665V29.448H159.025V34.872C159.025 35.512 159.057 35.96 159.121 36.216C159.201 36.456 159.353 36.616 159.577 36.696C159.817 36.76 160.241 36.792 160.849 36.792H161.665L161.401 39.24H159.265ZM169.387 39.24C167.995 39.24 166.803 38.96 165.811 38.4C164.835 37.824 164.099 37.064 163.603 36.12C163.123 35.16 162.883 34.096 162.883 32.928C162.883 31.808 163.115 30.784 163.579 29.856C164.043 28.928 164.715 28.192 165.595 27.648C166.475 27.088 167.523 26.808 168.739 26.808C169.859 26.808 170.803 27.04 171.571 27.504C172.355 27.968 172.939 28.592 173.323 29.376C173.723 30.16 173.923 31.04 173.923 32.016C173.923 32.496 173.859 33.04 173.731 33.648H165.979C166.139 34.704 166.555 35.496 167.227 36.024C167.899 36.536 168.707 36.792 169.651 36.792C170.947 36.792 172.147 36.464 173.251 35.808L173.395 38.328C172.883 38.6 172.283 38.824 171.595 39C170.923 39.16 170.187 39.24 169.387 39.24ZM170.899 31.632C170.899 31.008 170.723 30.456 170.371 29.976C170.019 29.496 169.475 29.256 168.739 29.256C168.003 29.256 167.411 29.472 166.963 29.904C166.515 30.336 166.211 30.912 166.051 31.632H170.899ZM179.363 39.24C178.595 39.24 177.891 39.168 177.251 39.024C176.627 38.88 175.979 38.656 175.307 38.352L175.571 35.808C176.243 36.208 176.867 36.512 177.443 36.72C178.035 36.912 178.643 37.008 179.267 37.008C180.483 37.008 181.091 36.608 181.091 35.808C181.091 35.376 180.931 35.048 180.611 34.824C180.291 34.584 179.715 34.304 178.883 33.984C177.699 33.552 176.827 33.064 176.267 32.52C175.707 31.96 175.427 31.208 175.427 30.264C175.427 29.224 175.827 28.384 176.627 27.744C177.427 27.088 178.507 26.76 179.867 26.76C181.227 26.76 182.467 27.072 183.587 27.696L183.323 30.24C182.715 29.824 182.139 29.504 181.595 29.28C181.067 29.056 180.507 28.944 179.915 28.944C179.403 28.944 179.003 29.048 178.715 29.256C178.443 29.464 178.307 29.76 178.307 30.144C178.307 30.448 178.387 30.696 178.547 30.888C178.723 31.08 178.963 31.256 179.267 31.416C179.571 31.56 180.075 31.768 180.779 32.04C181.947 32.488 182.787 32.984 183.299 33.528C183.811 34.056 184.067 34.768 184.067 35.664C184.067 36.8 183.659 37.68 182.843 38.304C182.027 38.928 180.867 39.24 179.363 39.24Z" fill="black"/>
<path d="M243.306 139.2H244.636V143.246H249.62V139.2H250.95V149H249.62V144.506H244.636V149H243.306V139.2ZM255.729 149.14C255.029 149.14 254.422 148.986 253.909 148.678C253.396 148.361 253.004 147.931 252.733 147.39C252.462 146.849 252.327 146.242 252.327 145.57C252.327 144.898 252.462 144.291 252.733 143.75C253.004 143.209 253.396 142.784 253.909 142.476C254.422 142.159 255.029 142 255.729 142C256.42 142 257.022 142.159 257.535 142.476C258.058 142.784 258.454 143.209 258.725 143.75C258.996 144.291 259.131 144.898 259.131 145.57C259.131 146.242 258.996 146.849 258.725 147.39C258.454 147.931 258.058 148.361 257.535 148.678C257.022 148.986 256.42 149.14 255.729 149.14ZM255.729 148.02C256.401 148.02 256.919 147.805 257.283 147.376C257.656 146.947 257.843 146.345 257.843 145.57C257.843 144.795 257.656 144.193 257.283 143.764C256.919 143.335 256.401 143.12 255.729 143.12C255.057 143.12 254.534 143.335 254.161 143.764C253.797 144.193 253.615 144.795 253.615 145.57C253.615 146.345 253.797 146.947 254.161 147.376C254.534 147.805 255.057 148.02 255.729 148.02ZM259.579 142.14H260.979L262.897 147.614L264.801 142.14H266.215L263.611 149H262.197L259.579 142.14ZM270.365 149.14C269.581 149.14 268.909 148.981 268.349 148.664C267.798 148.337 267.378 147.899 267.089 147.348C266.799 146.797 266.655 146.186 266.655 145.514C266.655 144.87 266.785 144.282 267.047 143.75C267.317 143.209 267.705 142.784 268.209 142.476C268.722 142.159 269.324 142 270.015 142C270.892 142 271.601 142.257 272.143 142.77C272.693 143.283 272.969 143.993 272.969 144.898C272.969 145.131 272.95 145.355 272.913 145.57H267.943C268.027 146.457 268.297 147.087 268.755 147.46C269.212 147.833 269.8 148.02 270.519 148.02C271.237 148.02 271.895 147.885 272.493 147.614L272.661 148.608C271.867 148.963 271.102 149.14 270.365 149.14ZM271.667 144.702C271.667 144.207 271.527 143.82 271.247 143.54C270.967 143.26 270.547 143.12 269.987 143.12C269.445 143.12 269.021 143.255 268.713 143.526C268.405 143.787 268.185 144.179 268.055 144.702H271.667ZM274.239 142.14H275.275L275.429 143.274C275.783 142.835 276.119 142.513 276.437 142.308C276.763 142.103 277.104 142 277.459 142C277.571 142 277.678 142.014 277.781 142.042L277.655 143.428C277.533 143.4 277.393 143.386 277.235 143.386C276.889 143.386 276.563 143.465 276.255 143.624C275.947 143.773 275.723 143.951 275.583 144.156V149H274.239V142.14Z" fill="black"/>
<g filter="url(#filter0_d_8_648)">
<rect x="135" y="88" width="34" height="34" fill="#2E3A8C"/>
</g>
<g filter="url(#filter1_d_8_648)">
<rect x="341" y="88" width="34" height="34" fill="#2E3A8C"/>
<rect x="342.594" y="89.5938" width="30.8125" height="30.8125" stroke="#B0B0B0" stroke-width="3.1875"/>
</g>
<g filter="url(#filter2_d_8_648)">
<rect x="243" y="88" width="34" height="34" fill="#2E3A8C" fill-opacity="0.8" shape-rendering="crispEdges"/>
</g>
<defs>
<filter id="filter0_d_8_648" x="126.5" y="88" width="51" height="51" filterUnits="userSpaceOnUse" color-interpolation-filters="sRGB">
<feFlood flood-opacity="0" result="BackgroundImageFix"/>
<feColorMatrix in="SourceAlpha" type="matrix" values="0 0 0 0 0 0 0 0 0 0 0 0 0 0 0 0 0 0 127 0" result="hardAlpha"/>
<feOffset dy="8.5"/>
<feGaussianBlur stdDeviation="4.25"/>
<feComposite in2="hardAlpha" operator="out"/>
<feColorMatrix type="matrix" values="0 0 0 0 0 0 0 0 0 0 0 0 0 0 0 0 0 0 0.01 0"/>
<feBlend mode="normal" in2="BackgroundImageFix" result="effect1_dropShadow_8_648"/>
<feBlend mode="normal" in="SourceGraphic" in2="effect1_dropShadow_8_648" result="shape"/>
</filter>
<filter id="filter1_d_8_648" x="332.5" y="88" width="51" height="51" filterUnits="userSpaceOnUse" color-interpolation-filters="sRGB">
<feFlood flood-opacity="0" result="BackgroundImageFix"/>
<feColorMatrix in="SourceAlpha" type="matrix" values="0 0 0 0 0 0 0 0 0 0 0 0 0 0 0 0 0 0 127 0" result="hardAlpha"/>
<feOffset dy="8.5"/>
<feGaussianBlur stdDeviation="4.25"/>
<feComposite in2="hardAlpha" operator="out"/>
<feColorMatrix type="matrix" values="0 0 0 0 0 0 0 0 0 0 0 0 0 0 0 0 0 0 0.01 0"/>
<feBlend mode="normal" in2="BackgroundImageFix" result="effect1_dropShadow_8_648"/>
<feBlend mode="normal" in="SourceGraphic" in2="effect1_dropShadow_8_648" result="shape"/>
</filter>
<filter id="filter2_d_8_648" x="234.5" y="88" width="51" height="51" filterUnits="userSpaceOnUse" color-interpolation-filters="sRGB">
<feFlood flood-opacity="0" result="BackgroundImageFix"/>
<feColorMatrix in="SourceAlpha" type="matrix" values="0 0 0 0 0 0 0 0 0 0 0 0 0 0 0 0 0 0 127 0" result="hardAlpha"/>
<feOffset dy="8.5"/>
<feGaussianBlur stdDeviation="4.25"/>
<feComposite in2="hardAlpha" operator="out"/>
<feColorMatrix type="matrix" values="0 0 0 0 0 0 0 0 0 0 0 0 0 0 0 0 0 0 0.01 0"/>
<feBlend mode="normal" in2="BackgroundImageFix" result="effect1_dropShadow_8_648"/>
<feBlend mode="normal" in="SourceGraphic" in2="effect1_dropShadow_8_648" result="shape"/>
</filter>
</defs>
</svg>
