<svg width="498" height="164" viewBox="0 0 498 164" fill="none" xmlns="http://www.w3.org/2000/svg">
<rect width="498" height="164" fill="#F9F9F9"/>
<path d="M115.398 138.2H116.84L121.67 145.536V138.2H123.014V148H121.88L116.728 140.258V148H115.398V138.2ZM127.794 148.14C127.094 148.14 126.488 147.986 125.974 147.678C125.461 147.361 125.069 146.931 124.798 146.39C124.528 145.849 124.392 145.242 124.392 144.57C124.392 143.898 124.528 143.291 124.798 142.75C125.069 142.209 125.461 141.784 125.974 141.476C126.488 141.159 127.094 141 127.794 141C128.485 141 129.087 141.159 129.6 141.476C130.123 141.784 130.52 142.209 130.79 142.75C131.061 143.291 131.196 143.898 131.196 144.57C131.196 145.242 131.061 145.849 130.79 146.39C130.52 146.931 130.123 147.361 129.6 147.678C129.087 147.986 128.485 148.14 127.794 148.14ZM127.794 147.02C128.466 147.02 128.984 146.805 129.348 146.376C129.722 145.947 129.908 145.345 129.908 144.57C129.908 143.795 129.722 143.193 129.348 142.764C128.984 142.335 128.466 142.12 127.794 142.12C127.122 142.12 126.6 142.335 126.226 142.764C125.862 143.193 125.68 143.795 125.68 144.57C125.68 145.345 125.862 145.947 126.226 146.376C126.6 146.805 127.122 147.02 127.794 147.02ZM134.766 148.14C134.159 148.14 133.707 147.981 133.408 147.664C133.119 147.347 132.974 146.959 132.974 146.502V142.12H131.798L131.91 141.14H132.974V139.446L134.234 139.32V141.14H136.04V142.12H134.234V145.732C134.234 146.208 134.262 146.535 134.318 146.712C134.374 146.889 134.491 147.006 134.668 147.062C134.855 147.109 135.191 147.132 135.676 147.132H135.998L135.9 148.14H134.766ZM142.207 148.14C141.666 148.14 141.19 148.079 140.779 147.958C140.378 147.827 140.07 147.687 139.855 147.538L140.009 146.32C140.196 146.488 140.481 146.647 140.863 146.796C141.255 146.945 141.685 147.02 142.151 147.02C142.59 147.02 142.926 146.945 143.159 146.796C143.402 146.647 143.523 146.437 143.523 146.166C143.523 145.849 143.393 145.611 143.131 145.452C142.87 145.284 142.543 145.144 142.151 145.032C141.722 144.92 141.358 144.803 141.059 144.682C140.77 144.551 140.518 144.355 140.303 144.094C140.098 143.833 139.995 143.487 139.995 143.058C139.995 142.47 140.205 141.98 140.625 141.588C141.045 141.196 141.694 141 142.571 141C142.973 141 143.313 141.042 143.593 141.126C143.873 141.201 144.153 141.308 144.433 141.448L144.279 142.596C144.055 142.409 143.808 142.265 143.537 142.162C143.267 142.05 142.954 141.994 142.599 141.994C142.189 141.994 141.862 142.073 141.619 142.232C141.386 142.381 141.269 142.61 141.269 142.918C141.269 143.123 141.325 143.291 141.437 143.422C141.549 143.543 141.708 143.646 141.913 143.73C142.119 143.814 142.436 143.921 142.865 144.052C143.397 144.211 143.855 144.435 144.237 144.724C144.629 145.013 144.825 145.471 144.825 146.096C144.825 146.656 144.625 147.137 144.223 147.538C143.831 147.939 143.159 148.14 142.207 148.14ZM149.348 148.14C148.564 148.14 147.892 147.981 147.332 147.664C146.781 147.337 146.361 146.899 146.072 146.348C145.783 145.797 145.638 145.186 145.638 144.514C145.638 143.87 145.769 143.282 146.03 142.75C146.301 142.209 146.688 141.784 147.192 141.476C147.705 141.159 148.307 141 148.998 141C149.875 141 150.585 141.257 151.126 141.77C151.677 142.283 151.952 142.993 151.952 143.898C151.952 144.131 151.933 144.355 151.896 144.57H146.926C147.01 145.457 147.281 146.087 147.738 146.46C148.195 146.833 148.783 147.02 149.502 147.02C150.221 147.02 150.879 146.885 151.476 146.614L151.644 147.608C150.851 147.963 150.085 148.14 149.348 148.14ZM150.65 143.702C150.65 143.207 150.51 142.82 150.23 142.54C149.95 142.26 149.53 142.12 148.97 142.12C148.429 142.12 148.004 142.255 147.696 142.526C147.388 142.787 147.169 143.179 147.038 143.702H150.65ZM154.986 148.14C154.37 148.14 153.917 147.981 153.628 147.664C153.348 147.347 153.208 146.955 153.208 146.488V137.5H154.468V145.76C154.468 146.171 154.491 146.469 154.538 146.656C154.594 146.843 154.697 146.969 154.846 147.034C154.995 147.099 155.238 147.132 155.574 147.132L155.392 148.14H154.986ZM159.752 148.14C158.968 148.14 158.296 147.981 157.736 147.664C157.186 147.337 156.766 146.899 156.476 146.348C156.187 145.797 156.042 145.186 156.042 144.514C156.042 143.87 156.173 143.282 156.434 142.75C156.705 142.209 157.092 141.784 157.596 141.476C158.11 141.159 158.712 141 159.402 141C160.28 141 160.989 141.257 161.53 141.77C162.081 142.283 162.356 142.993 162.356 143.898C162.356 144.131 162.338 144.355 162.3 144.57H157.33C157.414 145.457 157.685 146.087 158.142 146.46C158.6 146.833 159.188 147.02 159.906 147.02C160.625 147.02 161.283 146.885 161.88 146.614L162.048 147.608C161.255 147.963 160.49 148.14 159.752 148.14ZM161.054 143.702C161.054 143.207 160.914 142.82 160.634 142.54C160.354 142.26 159.934 142.12 159.374 142.12C158.833 142.12 158.408 142.255 158.1 142.526C157.792 142.787 157.573 143.179 157.442 143.702H161.054ZM166.776 148.14C166.03 148.14 165.386 147.986 164.844 147.678C164.312 147.37 163.911 146.95 163.64 146.418C163.37 145.877 163.234 145.275 163.234 144.612C163.234 143.529 163.538 142.657 164.144 141.994C164.76 141.331 165.67 141 166.874 141C167.584 141 168.209 141.135 168.75 141.406L168.554 142.512C167.985 142.251 167.416 142.12 166.846 142.12C166.1 142.12 165.526 142.335 165.124 142.764C164.723 143.184 164.522 143.781 164.522 144.556C164.522 145.331 164.714 145.937 165.096 146.376C165.488 146.815 166.062 147.034 166.818 147.034C167.425 147.034 168.008 146.894 168.568 146.614L168.736 147.622C168.531 147.762 168.246 147.883 167.882 147.986C167.528 148.089 167.159 148.14 166.776 148.14ZM172.35 148.14C171.743 148.14 171.291 147.981 170.992 147.664C170.703 147.347 170.558 146.959 170.558 146.502V142.12H169.382L169.494 141.14H170.558V139.446L171.818 139.32V141.14H173.624V142.12H171.818V145.732C171.818 146.208 171.846 146.535 171.902 146.712C171.958 146.889 172.075 147.006 172.252 147.062C172.439 147.109 172.775 147.132 173.26 147.132H173.582L173.484 148.14H172.35ZM177.936 148.14C177.152 148.14 176.48 147.981 175.92 147.664C175.369 147.337 174.949 146.899 174.66 146.348C174.371 145.797 174.226 145.186 174.226 144.514C174.226 143.87 174.357 143.282 174.618 142.75C174.889 142.209 175.276 141.784 175.78 141.476C176.293 141.159 176.895 141 177.586 141C178.463 141 179.173 141.257 179.714 141.77C180.265 142.283 180.54 142.993 180.54 143.898C180.54 144.131 180.521 144.355 180.484 144.57H175.514C175.598 145.457 175.869 146.087 176.326 146.46C176.783 146.833 177.371 147.02 178.09 147.02C178.809 147.02 179.467 146.885 180.064 146.614L180.232 147.608C179.439 147.963 178.673 148.14 177.936 148.14ZM179.238 143.702C179.238 143.207 179.098 142.82 178.818 142.54C178.538 142.26 178.118 142.12 177.558 142.12C177.017 142.12 176.592 142.255 176.284 142.526C175.976 142.787 175.757 143.179 175.626 143.702H179.238ZM187.886 137.5V148H186.766L186.626 147.16C186.393 147.477 186.089 147.72 185.716 147.888C185.343 148.056 184.946 148.14 184.526 148.14C183.947 148.14 183.42 147.981 182.944 147.664C182.468 147.347 182.09 146.917 181.81 146.376C181.539 145.835 181.404 145.237 181.404 144.584C181.404 143.949 181.53 143.357 181.782 142.806C182.043 142.255 182.412 141.817 182.888 141.49C183.364 141.163 183.91 141 184.526 141C184.937 141 185.324 141.075 185.688 141.224C186.052 141.373 186.365 141.602 186.626 141.91V137.5H187.886ZM184.75 147.02C185.086 147.02 185.408 146.936 185.716 146.768C186.024 146.591 186.276 146.32 186.472 145.956C186.668 145.592 186.766 145.135 186.766 144.584C186.766 144.071 186.668 143.627 186.472 143.254C186.276 142.881 186.019 142.601 185.702 142.414C185.394 142.218 185.077 142.12 184.75 142.12C184.115 142.12 183.611 142.353 183.238 142.82C182.874 143.277 182.692 143.865 182.692 144.584C182.692 145.275 182.879 145.853 183.252 146.32C183.625 146.787 184.125 147.02 184.75 147.02Z" fill="black"/>
<path d="M336.073 149.196C335.495 149.196 334.907 149.131 334.309 149C333.712 148.879 333.231 148.734 332.867 148.566L333.049 147.152C333.516 147.376 334.043 147.572 334.631 147.74C335.219 147.908 335.803 147.992 336.381 147.992C337.035 147.992 337.539 147.875 337.893 147.642C338.257 147.399 338.439 147.04 338.439 146.564C338.439 146.209 338.346 145.915 338.159 145.682C337.982 145.439 337.716 145.239 337.361 145.08C337.016 144.912 336.531 144.735 335.905 144.548C335.271 144.361 334.743 144.161 334.323 143.946C333.903 143.731 333.563 143.437 333.301 143.064C333.049 142.691 332.923 142.219 332.923 141.65C332.923 140.857 333.227 140.217 333.833 139.732C334.449 139.247 335.313 139.004 336.423 139.004C337.021 139.004 337.585 139.069 338.117 139.2C338.659 139.331 339.13 139.489 339.531 139.676L339.391 141.09C338.869 140.782 338.365 140.558 337.879 140.418C337.394 140.278 336.89 140.208 336.367 140.208C335.761 140.208 335.275 140.32 334.911 140.544C334.557 140.768 334.379 141.113 334.379 141.58C334.379 141.897 334.459 142.159 334.617 142.364C334.785 142.569 335.023 142.747 335.331 142.896C335.639 143.036 336.069 143.19 336.619 143.358C337.721 143.694 338.542 144.095 339.083 144.562C339.625 145.019 339.895 145.654 339.895 146.466C339.895 147.325 339.573 147.997 338.929 148.482C338.285 148.958 337.333 149.196 336.073 149.196ZM344.473 149.14C343.689 149.14 343.017 148.981 342.457 148.664C341.906 148.337 341.486 147.899 341.197 147.348C340.908 146.797 340.763 146.186 340.763 145.514C340.763 144.87 340.894 144.282 341.155 143.75C341.426 143.209 341.813 142.784 342.317 142.476C342.83 142.159 343.432 142 344.123 142C345 142 345.71 142.257 346.251 142.77C346.802 143.283 347.077 143.993 347.077 144.898C347.077 145.131 347.058 145.355 347.021 145.57H342.051C342.135 146.457 342.406 147.087 342.863 147.46C343.32 147.833 343.908 148.02 344.627 148.02C345.346 148.02 346.004 147.885 346.601 147.614L346.769 148.608C345.976 148.963 345.21 149.14 344.473 149.14ZM345.775 144.702C345.775 144.207 345.635 143.82 345.355 143.54C345.075 143.26 344.655 143.12 344.095 143.12C343.554 143.12 343.129 143.255 342.821 143.526C342.513 143.787 342.294 144.179 342.163 144.702H345.775ZM350.111 149.14C349.495 149.14 349.042 148.981 348.753 148.664C348.473 148.347 348.333 147.955 348.333 147.488V138.5H349.593V146.76C349.593 147.171 349.616 147.469 349.663 147.656C349.719 147.843 349.822 147.969 349.971 148.034C350.12 148.099 350.363 148.132 350.699 148.132L350.517 149.14H350.111ZM354.877 149.14C354.093 149.14 353.421 148.981 352.861 148.664C352.311 148.337 351.891 147.899 351.601 147.348C351.312 146.797 351.167 146.186 351.167 145.514C351.167 144.87 351.298 144.282 351.559 143.75C351.83 143.209 352.217 142.784 352.721 142.476C353.235 142.159 353.837 142 354.527 142C355.405 142 356.114 142.257 356.655 142.77C357.206 143.283 357.481 143.993 357.481 144.898C357.481 145.131 357.463 145.355 357.425 145.57H352.455C352.539 146.457 352.81 147.087 353.267 147.46C353.725 147.833 354.313 148.02 355.031 148.02C355.75 148.02 356.408 147.885 357.005 147.614L357.173 148.608C356.38 148.963 355.615 149.14 354.877 149.14ZM356.179 144.702C356.179 144.207 356.039 143.82 355.759 143.54C355.479 143.26 355.059 143.12 354.499 143.12C353.958 143.12 353.533 143.255 353.225 143.526C352.917 143.787 352.698 144.179 352.567 144.702H356.179ZM361.901 149.14C361.155 149.14 360.511 148.986 359.969 148.678C359.437 148.37 359.036 147.95 358.765 147.418C358.495 146.877 358.359 146.275 358.359 145.612C358.359 144.529 358.663 143.657 359.269 142.994C359.885 142.331 360.795 142 361.999 142C362.709 142 363.334 142.135 363.875 142.406L363.679 143.512C363.11 143.251 362.541 143.12 361.971 143.12C361.225 143.12 360.651 143.335 360.249 143.764C359.848 144.184 359.647 144.781 359.647 145.556C359.647 146.331 359.839 146.937 360.221 147.376C360.613 147.815 361.187 148.034 361.943 148.034C362.55 148.034 363.133 147.894 363.693 147.614L363.861 148.622C363.656 148.762 363.371 148.883 363.007 148.986C362.653 149.089 362.284 149.14 361.901 149.14ZM367.475 149.14C366.868 149.14 366.416 148.981 366.117 148.664C365.828 148.347 365.683 147.959 365.683 147.502V143.12H364.507L364.619 142.14H365.683V140.446L366.943 140.32V142.14H368.749V143.12H366.943V146.732C366.943 147.208 366.971 147.535 367.027 147.712C367.083 147.889 367.2 148.006 367.377 148.062C367.564 148.109 367.9 148.132 368.385 148.132H368.707L368.609 149.14H367.475ZM373.061 149.14C372.277 149.14 371.605 148.981 371.045 148.664C370.494 148.337 370.074 147.899 369.785 147.348C369.496 146.797 369.351 146.186 369.351 145.514C369.351 144.87 369.482 144.282 369.743 143.75C370.014 143.209 370.401 142.784 370.905 142.476C371.418 142.159 372.02 142 372.711 142C373.588 142 374.298 142.257 374.839 142.77C375.39 143.283 375.665 143.993 375.665 144.898C375.665 145.131 375.646 145.355 375.609 145.57H370.639C370.723 146.457 370.994 147.087 371.451 147.46C371.908 147.833 372.496 148.02 373.215 148.02C373.934 148.02 374.592 147.885 375.189 147.614L375.357 148.608C374.564 148.963 373.798 149.14 373.061 149.14ZM374.363 144.702C374.363 144.207 374.223 143.82 373.943 143.54C373.663 143.26 373.243 143.12 372.683 143.12C372.142 143.12 371.717 143.255 371.409 143.526C371.101 143.787 370.882 144.179 370.751 144.702H374.363ZM383.011 138.5V149H381.891L381.751 148.16C381.518 148.477 381.214 148.72 380.841 148.888C380.468 149.056 380.071 149.14 379.651 149.14C379.072 149.14 378.545 148.981 378.069 148.664C377.593 148.347 377.215 147.917 376.935 147.376C376.664 146.835 376.529 146.237 376.529 145.584C376.529 144.949 376.655 144.357 376.907 143.806C377.168 143.255 377.537 142.817 378.013 142.49C378.489 142.163 379.035 142 379.651 142C380.062 142 380.449 142.075 380.813 142.224C381.177 142.373 381.49 142.602 381.751 142.91V138.5H383.011ZM379.875 148.02C380.211 148.02 380.533 147.936 380.841 147.768C381.149 147.591 381.401 147.32 381.597 146.956C381.793 146.592 381.891 146.135 381.891 145.584C381.891 145.071 381.793 144.627 381.597 144.254C381.401 143.881 381.144 143.601 380.827 143.414C380.519 143.218 380.202 143.12 379.875 143.12C379.24 143.12 378.736 143.353 378.363 143.82C377.999 144.277 377.817 144.865 377.817 145.584C377.817 146.275 378.004 146.853 378.377 147.32C378.75 147.787 379.25 148.02 379.875 148.02Z" fill="black"/>
<path d="M55.5573 25.176H50.8053V22.2H63.3813V25.176H58.6293V39H55.5573V25.176ZM68.8166 39.24C67.5526 39.24 66.4566 38.96 65.5286 38.4C64.6006 37.84 63.8886 37.088 63.3926 36.144C62.8966 35.2 62.6486 34.16 62.6486 33.024C62.6486 31.888 62.8966 30.84 63.3926 29.88C63.8886 28.92 64.6006 28.16 65.5286 27.6C66.4566 27.04 67.5526 26.76 68.8166 26.76C70.0806 26.76 71.1766 27.04 72.1046 27.6C73.0326 28.16 73.7446 28.92 74.2406 29.88C74.7366 30.84 74.9846 31.888 74.9846 33.024C74.9846 34.16 74.7366 35.2 74.2406 36.144C73.7446 37.088 73.0326 37.84 72.1046 38.4C71.1766 38.96 70.0806 39.24 68.8166 39.24ZM68.8166 36.792C69.7926 36.792 70.5526 36.448 71.0966 35.76C71.6566 35.072 71.9366 34.16 71.9366 33.024C71.9366 31.872 71.6566 30.952 71.0966 30.264C70.5526 29.56 69.7926 29.208 68.8166 29.208C67.8406 29.208 67.0726 29.56 66.5126 30.264C65.9686 30.952 65.6966 31.872 65.6966 33.024C65.6966 34.16 65.9686 35.072 66.5126 35.76C67.0726 36.448 67.8406 36.792 68.8166 36.792ZM81.8081 45.048C80.1121 45.048 78.7601 44.736 77.7521 44.112C76.7441 43.504 76.2401 42.672 76.2401 41.616C76.2401 40.464 76.8881 39.52 78.1841 38.784C77.4801 38.352 77.1281 37.784 77.1281 37.08C77.1281 36.712 77.2321 36.384 77.4401 36.096C77.6641 35.808 77.9601 35.576 78.3281 35.4C77.7201 34.968 77.2561 34.416 76.9361 33.744C76.6321 33.072 76.4801 32.336 76.4801 31.536C76.4801 30.656 76.6721 29.856 77.0561 29.136C77.4401 28.4 78.0001 27.824 78.7361 27.408C79.4721 26.976 80.3441 26.76 81.3521 26.76C82.4081 26.76 83.3201 27.016 84.0881 27.528C84.3601 27.384 84.7201 27.264 85.1681 27.168C85.6321 27.056 86.1281 27 86.6561 27H87.4241L87.2321 28.872H86.1521C85.8801 28.872 85.6561 28.88 85.4801 28.896C85.9601 29.632 86.2001 30.512 86.2001 31.536C86.2001 32.416 86.0081 33.224 85.6241 33.96C85.2561 34.68 84.7041 35.256 83.9681 35.688C83.2321 36.104 82.3601 36.312 81.3521 36.312C80.9841 36.312 80.5601 36.256 80.0801 36.144C79.9041 36.224 79.8161 36.352 79.8161 36.528C79.8161 36.736 79.9361 36.904 80.1761 37.032C80.4321 37.144 80.8561 37.24 81.4481 37.32L83.5121 37.584C86.2641 37.952 87.6401 39.112 87.6401 41.064C87.6401 42.28 87.1201 43.248 86.0801 43.968C85.0561 44.688 83.6321 45.048 81.8081 45.048ZM81.3521 34.104C82.0401 34.104 82.5681 33.88 82.9361 33.432C83.3201 32.968 83.5121 32.336 83.5121 31.536C83.5121 30.736 83.3201 30.112 82.9361 29.664C82.5681 29.2 82.0401 28.968 81.3521 28.968C80.6481 28.968 80.1041 29.2 79.7201 29.664C79.3521 30.112 79.1681 30.736 79.1681 31.536C79.1681 32.336 79.3521 32.968 79.7201 33.432C80.1041 33.88 80.6481 34.104 81.3521 34.104ZM81.9281 42.792C83.9761 42.792 85.0001 42.288 85.0001 41.28C85.0001 40.832 84.8241 40.496 84.4721 40.272C84.1201 40.064 83.5361 39.896 82.7201 39.768L80.0801 39.384C79.1681 39.752 78.7121 40.312 78.7121 41.064C78.7121 41.64 78.9921 42.072 79.5521 42.36C80.1121 42.648 80.9041 42.792 81.9281 42.792ZM93.8315 45.048C92.1355 45.048 90.7835 44.736 89.7755 44.112C88.7675 43.504 88.2635 42.672 88.2635 41.616C88.2635 40.464 88.9115 39.52 90.2075 38.784C89.5035 38.352 89.1515 37.784 89.1515 37.08C89.1515 36.712 89.2555 36.384 89.4635 36.096C89.6875 35.808 89.9835 35.576 90.3515 35.4C89.7435 34.968 89.2795 34.416 88.9595 33.744C88.6555 33.072 88.5035 32.336 88.5035 31.536C88.5035 30.656 88.6955 29.856 89.0795 29.136C89.4635 28.4 90.0235 27.824 90.7595 27.408C91.4955 26.976 92.3675 26.76 93.3755 26.76C94.4315 26.76 95.3435 27.016 96.1115 27.528C96.3835 27.384 96.7435 27.264 97.1915 27.168C97.6555 27.056 98.1515 27 98.6795 27H99.4475L99.2555 28.872H98.1755C97.9035 28.872 97.6795 28.88 97.5035 28.896C97.9835 29.632 98.2235 30.512 98.2235 31.536C98.2235 32.416 98.0315 33.224 97.6475 33.96C97.2795 34.68 96.7275 35.256 95.9915 35.688C95.2555 36.104 94.3835 36.312 93.3755 36.312C93.0075 36.312 92.5835 36.256 92.1035 36.144C91.9275 36.224 91.8395 36.352 91.8395 36.528C91.8395 36.736 91.9595 36.904 92.1995 37.032C92.4555 37.144 92.8795 37.24 93.4715 37.32L95.5355 37.584C98.2875 37.952 99.6635 39.112 99.6635 41.064C99.6635 42.28 99.1435 43.248 98.1035 43.968C97.0795 44.688 95.6555 45.048 93.8315 45.048ZM93.3755 34.104C94.0635 34.104 94.5915 33.88 94.9595 33.432C95.3435 32.968 95.5355 32.336 95.5355 31.536C95.5355 30.736 95.3435 30.112 94.9595 29.664C94.5915 29.2 94.0635 28.968 93.3755 28.968C92.6715 28.968 92.1275 29.2 91.7435 29.664C91.3755 30.112 91.1915 30.736 91.1915 31.536C91.1915 32.336 91.3755 32.968 91.7435 33.432C92.1275 33.88 92.6715 34.104 93.3755 34.104ZM93.9515 42.792C95.9995 42.792 97.0235 42.288 97.0235 41.28C97.0235 40.832 96.8475 40.496 96.4955 40.272C96.1435 40.064 95.5595 39.896 94.7435 39.768L92.1035 39.384C91.1915 39.752 90.7355 40.312 90.7355 41.064C90.7355 41.64 91.0155 42.072 91.5755 42.36C92.1355 42.648 92.9275 42.792 93.9515 42.792ZM104.175 39.24C103.151 39.24 102.383 38.952 101.871 38.376C101.359 37.784 101.103 37.024 101.103 36.096V21H104.079V34.872C104.079 35.512 104.111 35.968 104.175 36.24C104.255 36.496 104.383 36.656 104.559 36.72C104.751 36.768 105.071 36.792 105.519 36.792L105.255 39.24H104.175ZM113.074 39.24C111.682 39.24 110.49 38.96 109.498 38.4C108.522 37.824 107.786 37.064 107.29 36.12C106.81 35.16 106.57 34.096 106.57 32.928C106.57 31.808 106.802 30.784 107.266 29.856C107.73 28.928 108.402 28.192 109.282 27.648C110.162 27.088 111.21 26.808 112.426 26.808C113.546 26.808 114.49 27.04 115.258 27.504C116.042 27.968 116.626 28.592 117.01 29.376C117.41 30.16 117.61 31.04 117.61 32.016C117.61 32.496 117.546 33.04 117.418 33.648H109.666C109.826 34.704 110.242 35.496 110.914 36.024C111.586 36.536 112.394 36.792 113.338 36.792C114.634 36.792 115.834 36.464 116.938 35.808L117.082 38.328C116.57 38.6 115.97 38.824 115.282 39C114.61 39.16 113.874 39.24 113.074 39.24ZM114.586 31.632C114.586 31.008 114.41 30.456 114.058 29.976C113.706 29.496 113.162 29.256 112.426 29.256C111.69 29.256 111.098 29.472 110.65 29.904C110.202 30.336 109.898 30.912 109.738 31.632H114.586ZM128.441 39.24C127.673 39.24 126.969 39.168 126.329 39.024C125.705 38.88 125.057 38.656 124.385 38.352L124.649 35.808C125.321 36.208 125.945 36.512 126.521 36.72C127.113 36.912 127.721 37.008 128.345 37.008C129.561 37.008 130.169 36.608 130.169 35.808C130.169 35.376 130.009 35.048 129.689 34.824C129.369 34.584 128.793 34.304 127.961 33.984C126.777 33.552 125.905 33.064 125.345 32.52C124.785 31.96 124.505 31.208 124.505 30.264C124.505 29.224 124.905 28.384 125.705 27.744C126.505 27.088 127.585 26.76 128.945 26.76C130.305 26.76 131.545 27.072 132.665 27.696L132.401 30.24C131.793 29.824 131.217 29.504 130.673 29.28C130.145 29.056 129.585 28.944 128.993 28.944C128.481 28.944 128.081 29.048 127.793 29.256C127.521 29.464 127.385 29.76 127.385 30.144C127.385 30.448 127.465 30.696 127.625 30.888C127.801 31.08 128.041 31.256 128.345 31.416C128.649 31.56 129.153 31.768 129.857 32.04C131.025 32.488 131.865 32.984 132.377 33.528C132.889 34.056 133.145 34.768 133.145 35.664C133.145 36.8 132.737 37.68 131.921 38.304C131.105 38.928 129.945 39.24 128.441 39.24ZM139.093 39.24C138.037 39.24 137.237 38.936 136.693 38.328C136.149 37.704 135.877 36.96 135.877 36.096V29.448H134.173L134.437 27H135.877V24.36L138.853 24.048V27H141.493V29.448H138.853V34.872C138.853 35.512 138.885 35.96 138.949 36.216C139.029 36.456 139.181 36.616 139.405 36.696C139.645 36.76 140.069 36.792 140.677 36.792H141.493L141.229 39.24H139.093ZM146.023 39.24C145.031 39.24 144.199 38.92 143.527 38.28C142.871 37.624 142.543 36.744 142.543 35.64C142.543 34.6 142.919 33.768 143.671 33.144C144.423 32.504 145.311 32.056 146.335 31.8C147.359 31.528 148.343 31.376 149.287 31.344C149.255 30.64 149.071 30.136 148.735 29.832C148.415 29.528 147.879 29.376 147.127 29.376C146.599 29.376 146.079 29.448 145.567 29.592C145.071 29.736 144.495 29.968 143.839 30.288L143.575 27.864C145.031 27.16 146.487 26.808 147.943 26.808C149.351 26.808 150.423 27.192 151.159 27.96C151.911 28.728 152.287 29.952 152.287 31.632V34.872C152.287 35.48 152.311 35.92 152.359 36.192C152.423 36.448 152.519 36.616 152.647 36.696C152.791 36.76 153.023 36.792 153.343 36.792H153.727L153.463 39.24H152.383C151.727 39.24 151.175 39.12 150.727 38.88C150.279 38.624 149.935 38.28 149.695 37.848C149.311 38.28 148.783 38.624 148.111 38.88C147.455 39.12 146.759 39.24 146.023 39.24ZM147.271 36.96C147.575 36.96 147.919 36.888 148.303 36.744C148.687 36.584 149.023 36.368 149.311 36.096V33.36C148.351 33.408 147.503 33.616 146.767 33.984C146.031 34.352 145.663 34.864 145.663 35.52C145.663 36.016 145.791 36.384 146.047 36.624C146.303 36.848 146.711 36.96 147.271 36.96ZM159.109 39.24C158.053 39.24 157.253 38.936 156.709 38.328C156.165 37.704 155.893 36.96 155.893 36.096V29.448H154.189L154.453 27H155.893V24.36L158.869 24.048V27H161.509V29.448H158.869V34.872C158.869 35.512 158.901 35.96 158.965 36.216C159.045 36.456 159.197 36.616 159.421 36.696C159.661 36.76 160.085 36.792 160.693 36.792H161.509L161.245 39.24H159.109ZM169.231 39.24C167.839 39.24 166.647 38.96 165.655 38.4C164.679 37.824 163.943 37.064 163.447 36.12C162.967 35.16 162.727 34.096 162.727 32.928C162.727 31.808 162.959 30.784 163.423 29.856C163.887 28.928 164.559 28.192 165.439 27.648C166.319 27.088 167.367 26.808 168.583 26.808C169.703 26.808 170.647 27.04 171.415 27.504C172.199 27.968 172.783 28.592 173.167 29.376C173.567 30.16 173.767 31.04 173.767 32.016C173.767 32.496 173.703 33.04 173.575 33.648H165.823C165.983 34.704 166.399 35.496 167.071 36.024C167.743 36.536 168.551 36.792 169.495 36.792C170.791 36.792 171.991 36.464 173.095 35.808L173.239 38.328C172.727 38.6 172.127 38.824 171.439 39C170.767 39.16 170.031 39.24 169.231 39.24ZM170.743 31.632C170.743 31.008 170.567 30.456 170.215 29.976C169.863 29.496 169.319 29.256 168.583 29.256C167.847 29.256 167.255 29.472 166.807 29.904C166.359 30.336 166.055 30.912 165.895 31.632H170.743ZM179.206 39.24C178.438 39.24 177.734 39.168 177.094 39.024C176.47 38.88 175.822 38.656 175.15 38.352L175.414 35.808C176.086 36.208 176.71 36.512 177.286 36.72C177.878 36.912 178.486 37.008 179.11 37.008C180.326 37.008 180.934 36.608 180.934 35.808C180.934 35.376 180.774 35.048 180.454 34.824C180.134 34.584 179.558 34.304 178.726 33.984C177.542 33.552 176.67 33.064 176.11 32.52C175.55 31.96 175.27 31.208 175.27 30.264C175.27 29.224 175.67 28.384 176.47 27.744C177.27 27.088 178.35 26.76 179.71 26.76C181.07 26.76 182.31 27.072 183.43 27.696L183.166 30.24C182.558 29.824 181.982 29.504 181.438 29.28C180.91 29.056 180.35 28.944 179.758 28.944C179.246 28.944 178.846 29.048 178.558 29.256C178.286 29.464 178.15 29.76 178.15 30.144C178.15 30.448 178.23 30.696 178.39 30.888C178.566 31.08 178.806 31.256 179.11 31.416C179.414 31.56 179.918 31.768 180.622 32.04C181.79 32.488 182.63 32.984 183.142 33.528C183.654 34.056 183.91 34.768 183.91 35.664C183.91 36.8 183.502 37.68 182.686 38.304C181.87 38.928 180.71 39.24 179.206 39.24Z" fill="black"/>
<g filter="url(#filter0_i_9_97)">
<rect x="129.734" y="92" width="46.4853" height="23.2427" rx="11.6213" fill="#F9F9F9"/>
</g>
<rect x="129.393" y="91.6582" width="47.169" height="23.9263" rx="11.9631" stroke="#AFC6BD" stroke-width="0.683608"/>
<g filter="url(#filter1_d_9_97)">
<rect x="129.393" y="92" width="23.2427" height="23.2427" rx="11.6213" fill="#F9F9F9"/>
<rect x="129.051" y="91.6582" width="23.9263" height="23.9263" rx="11.9631" stroke="#F2EBDB" stroke-width="0.683608"/>
</g>
<path d="M243.306 139.2H244.636V143.246H249.62V139.2H250.95V149H249.62V144.506H244.636V149H243.306V139.2ZM255.729 149.14C255.029 149.14 254.422 148.986 253.909 148.678C253.396 148.361 253.004 147.931 252.733 147.39C252.462 146.849 252.327 146.242 252.327 145.57C252.327 144.898 252.462 144.291 252.733 143.75C253.004 143.209 253.396 142.784 253.909 142.476C254.422 142.159 255.029 142 255.729 142C256.42 142 257.022 142.159 257.535 142.476C258.058 142.784 258.454 143.209 258.725 143.75C258.996 144.291 259.131 144.898 259.131 145.57C259.131 146.242 258.996 146.849 258.725 147.39C258.454 147.931 258.058 148.361 257.535 148.678C257.022 148.986 256.42 149.14 255.729 149.14ZM255.729 148.02C256.401 148.02 256.919 147.805 257.283 147.376C257.656 146.947 257.843 146.345 257.843 145.57C257.843 144.795 257.656 144.193 257.283 143.764C256.919 143.335 256.401 143.12 255.729 143.12C255.057 143.12 254.534 143.335 254.161 143.764C253.797 144.193 253.615 144.795 253.615 145.57C253.615 146.345 253.797 146.947 254.161 147.376C254.534 147.805 255.057 148.02 255.729 148.02ZM259.579 142.14H260.979L262.897 147.614L264.801 142.14H266.215L263.611 149H262.197L259.579 142.14ZM270.365 149.14C269.581 149.14 268.909 148.981 268.349 148.664C267.798 148.337 267.378 147.899 267.089 147.348C266.799 146.797 266.655 146.186 266.655 145.514C266.655 144.87 266.785 144.282 267.047 143.75C267.317 143.209 267.705 142.784 268.209 142.476C268.722 142.159 269.324 142 270.015 142C270.892 142 271.601 142.257 272.143 142.77C272.693 143.283 272.969 143.993 272.969 144.898C272.969 145.131 272.95 145.355 272.913 145.57H267.943C268.027 146.457 268.297 147.087 268.755 147.46C269.212 147.833 269.8 148.02 270.519 148.02C271.237 148.02 271.895 147.885 272.493 147.614L272.661 148.608C271.867 148.963 271.102 149.14 270.365 149.14ZM271.667 144.702C271.667 144.207 271.527 143.82 271.247 143.54C270.967 143.26 270.547 143.12 269.987 143.12C269.445 143.12 269.021 143.255 268.713 143.526C268.405 143.787 268.185 144.179 268.055 144.702H271.667ZM274.239 142.14H275.275L275.429 143.274C275.783 142.835 276.119 142.513 276.437 142.308C276.763 142.103 277.104 142 277.459 142C277.571 142 277.678 142.014 277.781 142.042L277.655 143.428C277.533 143.4 277.393 143.386 277.235 143.386C276.889 143.386 276.563 143.465 276.255 143.624C275.947 143.773 275.723 143.951 275.583 144.156V149H274.239V142.14Z" fill="black"/>
<g filter="url(#filter2_i_9_97)">
<rect x="238.734" y="93" width="46.4853" height="23.2427" rx="11.6213" fill="#F9F9F9"/>
</g>
<rect x="238.393" y="92.6582" width="47.169" height="23.9263" rx="11.9631" stroke="#AFC6BD" stroke-width="0.683608"/>
<circle opacity="0.5" cx="250.014" cy="104.621" r="18.7992" fill="#AFC6BD"/>
<g filter="url(#filter3_d_9_97)">
<rect x="238.393" y="93" width="23.2427" height="23.2427" rx="11.6213" fill="#F9F9F9"/>
<rect x="238.051" y="92.6582" width="23.9263" height="23.9263" rx="11.9631" stroke="#F2EBDB" stroke-width="0.683608"/>
</g>
<g filter="url(#filter4_i_9_97)">
<rect x="333" y="92" width="46.4853" height="23.2427" rx="11.6213" fill="#3B755F"/>
</g>
<rect x="332.658" y="91.6582" width="47.169" height="23.9263" rx="11.9631" stroke="#B0B0B0" stroke-width="0.683608"/>
<g filter="url(#filter5_d_9_97)">
<rect x="356.243" y="92" width="23.2427" height="23.2427" rx="11.6213" fill="#F9F9F9"/>
<rect x="355.901" y="91.6582" width="23.9263" height="23.9263" rx="11.9631" stroke="#3B755F" stroke-width="0.683608"/>
</g>
<defs>
<filter id="filter0_i_9_97" x="129.051" y="91.3164" width="47.8525" height="25.6353" filterUnits="userSpaceOnUse" color-interpolation-filters="sRGB">
<feFlood flood-opacity="0" result="BackgroundImageFix"/>
<feBlend mode="normal" in="SourceGraphic" in2="BackgroundImageFix" result="shape"/>
<feColorMatrix in="SourceAlpha" type="matrix" values="0 0 0 0 0 0 0 0 0 0 0 0 0 0 0 0 0 0 127 0" result="hardAlpha"/>
<feOffset dy="1.02541"/>
<feGaussianBlur stdDeviation="3.41804"/>
<feComposite in2="hardAlpha" operator="arithmetic" k2="-1" k3="1"/>
<feColorMatrix type="matrix" values="0 0 0 0 0 0 0 0 0 0 0 0 0 0 0 0 0 0 0.15 0"/>
<feBlend mode="normal" in2="shape" result="effect1_innerShadow_9_97"/>
</filter>
<filter id="filter1_d_9_97" x="127.342" y="89.9492" width="27.3443" height="27.3443" filterUnits="userSpaceOnUse" color-interpolation-filters="sRGB">
<feFlood flood-opacity="0" result="BackgroundImageFix"/>
<feColorMatrix in="SourceAlpha" type="matrix" values="0 0 0 0 0 0 0 0 0 0 0 0 0 0 0 0 0 0 127 0" result="hardAlpha"/>
<feOffset/>
<feGaussianBlur stdDeviation="0.683608"/>
<feColorMatrix type="matrix" values="0 0 0 0 0 0 0 0 0 0 0 0 0 0 0 0 0 0 0.35 0"/>
<feBlend mode="normal" in2="BackgroundImageFix" result="effect1_dropShadow_9_97"/>
<feBlend mode="normal" in="SourceGraphic" in2="effect1_dropShadow_9_97" result="shape"/>
</filter>
<filter id="filter2_i_9_97" x="238.051" y="92.3164" width="47.8525" height="25.6353" filterUnits="userSpaceOnUse" color-interpolation-filters="sRGB">
<feFlood flood-opacity="0" result="BackgroundImageFix"/>
<feBlend mode="normal" in="SourceGraphic" in2="BackgroundImageFix" result="shape"/>
<feColorMatrix in="SourceAlpha" type="matrix" values="0 0 0 0 0 0 0 0 0 0 0 0 0 0 0 0 0 0 127 0" result="hardAlpha"/>
<feOffset dy="1.02541"/>
<feGaussianBlur stdDeviation="3.41804"/>
<feComposite in2="hardAlpha" operator="arithmetic" k2="-1" k3="1"/>
<feColorMatrix type="matrix" values="0 0 0 0 0 0 0 0 0 0 0 0 0 0 0 0 0 0 0.15 0"/>
<feBlend mode="normal" in2="shape" result="effect1_innerShadow_9_97"/>
</filter>
<filter id="filter3_d_9_97" x="236.342" y="90.9492" width="27.3443" height="27.3443" filterUnits="userSpaceOnUse" color-interpolation-filters="sRGB">
<feFlood flood-opacity="0" result="BackgroundImageFix"/>
<feColorMatrix in="SourceAlpha" type="matrix" values="0 0 0 0 0 0 0 0 0 0 0 0 0 0 0 0 0 0 127 0" result="hardAlpha"/>
<feOffset/>
<feGaussianBlur stdDeviation="0.683608"/>
<feColorMatrix type="matrix" values="0 0 0 0 0 0 0 0 0 0 0 0 0 0 0 0 0 0 0.35 0"/>
<feBlend mode="normal" in2="BackgroundImageFix" result="effect1_dropShadow_9_97"/>
<feBlend mode="normal" in="SourceGraphic" in2="effect1_dropShadow_9_97" result="shape"/>
</filter>
<filter id="filter4_i_9_97" x="332.316" y="91.3164" width="47.8525" height="25.6353" filterUnits="userSpaceOnUse" color-interpolation-filters="sRGB">
<feFlood flood-opacity="0" result="BackgroundImageFix"/>
<feBlend mode="normal" in="SourceGraphic" in2="BackgroundImageFix" result="shape"/>
<feColorMatrix in="SourceAlpha" type="matrix" values="0 0 0 0 0 0 0 0 0 0 0 0 0 0 0 0 0 0 127 0" result="hardAlpha"/>
<feOffset dy="1.02541"/>
<feGaussianBlur stdDeviation="3.41804"/>
<feComposite in2="hardAlpha" operator="arithmetic" k2="-1" k3="1"/>
<feColorMatrix type="matrix" values="0 0 0 0 0 0 0 0 0 0 0 0 0 0 0 0 0 0 0.15 0"/>
<feBlend mode="normal" in2="shape" result="effect1_innerShadow_9_97"/>
</filter>
<filter id="filter5_d_9_97" x="354.192" y="89.9492" width="27.3443" height="27.3443" filterUnits="userSpaceOnUse" color-interpolation-filters="sRGB">
<feFlood flood-opacity="0" result="BackgroundImageFix"/>
<feColorMatrix in="SourceAlpha" type="matrix" values="0 0 0 0 0 0 0 0 0 0 0 0 0 0 0 0 0 0 127 0" result="hardAlpha"/>
<feOffset/>
<feGaussianBlur stdDeviation="0.683608"/>
<feColorMatrix type="matrix" values="0 0 0 0 0 0 0 0 0 0 0 0 0 0 0 0 0 0 0.35 0"/>
<feBlend mode="normal" in2="BackgroundImageFix" result="effect1_dropShadow_9_97"/>
<feBlend mode="normal" in="SourceGraphic" in2="effect1_dropShadow_9_97" result="shape"/>
</filter>
</defs>
</svg>
